**********************
PowerShell transcript start
Start time: 20200906025826
**********************
Transcript started, output file is ./logs/h264nvenc_gop_200808.avi.log
DEBUG Invoke-Process
File: ffmpeg
Arg: -y -nostats -analyzeduration 30M -probesize 100M -fflags +discardcorrupt -i 200808.avi -an -c:v h264_nvenc -preset:v p7 -profile:v high -rc:v constqp -rc-lookahead 1 -spatial-aq 0 -temporal-aq 1 -init_qpI 22 -init_qpP 23 -init_qpB 26 -weighted_pred 0 -coder cabac -b_ref_mode 2 -dpb_size 4 -multipass 0 -g 15 -bf 2 -pix_fmt yuv420p -color_range tv -color_primaries bt709 -color_trc bt709 -colorspace bt709 -movflags +faststart output.mp4
ArgList:

ffmpeg version N-98966-g7a89f382a3-g0271098e6c+4 Copyright (c) 2000-2020 the FFmpeg developers
  built with gcc 10.2.0 (Rev1, Built by MSYS2 project)
  configuration:  --cc='ccache gcc' --cxx='ccache g++' --disable-autodetect --enable-amf --enable-bzlib --enable-cuda --enable-cuvid --enable-d3d11va --enable-dxva2 --enable-iconv --enable-lzma --enable-nvenc --enable-zlib --enable-sdl2 --enable-ffnvcodec --enable-nvdec --enable-cuda-llvm --enable-libmp3lame --enable-libopus --enable-libvorbis --enable-libvpx --enable-libx264 --enable-libx265 --enable-libdav1d --enable-libaom --disable-debug --enable-fontconfig --enable-libass --enable-libbluray --enable-libfreetype --enable-libmfx --enable-libmysofa --enable-libopencore-amrnb --enable-libopencore-amrwb --enable-libopenjpeg --enable-libsnappy --enable-libsoxr --enable-libspeex --enable-libtheora --enable-libtwolame --enable-libvidstab --enable-libvo-amrwbenc --enable-libwavpack --enable-libwebp --enable-libxml2 --enable-libzimg --enable-libshine --enable-gpl --enable-avisynth --enable-libxvid --enable-libopenmpt --enable-version3 --enable-librav1e --enable-libsrt --enable-libgsm --enable-libvmaf --enable-chromaprint --enable-decklink --enable-frei0r --enable-libbs2b --enable-libcaca --enable-libcdio --enable-libfdk-aac --enable-libflite --enable-libfribidi --enable-libgme --enable-libilbc --enable-libsvthevc --enable-libsvtav1 --enable-libsvtvp9 --enable-libkvazaar --enable-libmodplug --enable-librtmp --enable-librubberband --enable-libtesseract --enable-libxavs --enable-libzmq --enable-libzvbi --enable-openal --enable-libcodec2 --enable-ladspa --enable-libglslang --enable-vulkan --enable-opencl --enable-opengl --enable-libnpp --enable-libopenh264 --enable-openssl --extra-cflags=-fopenmp --extra-libs=-lgomp --extra-cflags=-DLIBTWOLAME_STATIC --extra-libs=-lstdc++ --extra-cflags=-DCACA_STATIC --extra-cflags=-DMODPLUG_STATIC --extra-cflags=-DCHROMAPRINT_NODLL --extra-libs=-lstdc++ --extra-cflags=-DZMQ_STATIC --extra-libs=-lpsapi --extra-cflags=-DLIBXML_STATIC --extra-libs=-liconv --disable-w32threads --extra-cflags=-DKVZ_STATIC_LIB --enable-nonfree --extra-cflags='-IC:/PROGRA~1/NVIDIA~2/CUDA/v11.0/include' --extra-ldflags='-LC:/PROGRA~1/NVIDIA~2/CUDA/v11.0/lib/x64' --extra-cflags=-DAL_LIBTYPE_STATIC --extra-cflags='-IC:/bin/media-autobuild_suite-master/local64/include/AL'
  libavdevice    58. 11.101 / 58. 11.101
  libavfilter     7. 87.100 /  7. 87.100
  libavcodec     58.101.101 / 58.101.101
  libavutil      56. 58.100 / 56. 58.100
  libswresample   3.  8.100 /  3.  8.100
  libpostproc    55.  8.100 / 55.  8.100
  libswscale      5.  8.100 /  5.  8.100
  libavformat    58. 51.101 / 58. 51.101
Input #0, avi, from '200808.avi':
    encoder         : Lavf58.49.100
  Metadata:
    Stream #0:0: Video: rawvideo (I420 / 0x30323449), yuv420p, 1920x1080, 745750 kb/s, SAR 1:1 DAR 16:9, 29.97 fps, 29.97 tbr, 29.97 tbn, 29.97 tbc
  Duration: 00:02:01.05, start: 0.000000, bitrate: 745549 kb/s
Stream mapping:
  Stream #0:0 -> #0:0 (rawvideo (native) -> h264 (h264_nvenc))
Press [q] to stop, [?] for help
Output #0, mp4, to 'output.mp4':
  Metadata:
    encoder         : Lavf58.51.101
    Metadata:
      encoder         : Lavc58.101.101 h264_nvenc
    Side data:
    Stream #0:0: Video: h264 (h264_nvenc) (High) (avc1 / 0x31637661), yuv420p(tv, bt709), 1920x1080 [SAR 1:1 DAR 16:9], q=-1--1, 2000 kb/s, 29.97 fps, 30k tbn, 29.97 tbc
      cpb: bitrate max/min/avg: 0/0/2000000 buffer size: 4000000 vbv_delay: N/A
[mp4 @ 000001b4058c6c80] Starting second pass: moving the moov atom to the beginning of the file
frame= 3628 fps= 89 q=23.0 Lsize=  158918kB time=00:02:00.95 bitrate=10763.2kbits/s dup=1 drop=0 speed=2.97x    
video:158872kB audio:0kB subtitle:0kB other streams:0kB global headers:0kB muxing overhead: 0.028756%
DEBUG ExitCode: 0
DEBUG Invoke-Process
File: ffmpeg
Arg: -y -nostats -i output.mp4 -i 200808.avi -filter_complex libvmaf=vmaf_v0.6.1.pkl -an -f null -
ArgList:

built with gcc 10.2.0 (Rev1, Built by MSYS2 project)
ffmpeg version N-98966-g7a89f382a3-g0271098e6c+4 Copyright (c) 2000-2020 the FFmpeg developers
  configuration:  --cc='ccache gcc' --cxx='ccache g++' --disable-autodetect --enable-amf --enable-bzlib --enable-cuda --enable-cuvid --enable-d3d11va --enable-dxva2 --enable-iconv --enable-lzma --enable-nvenc --enable-zlib --enable-sdl2 --enable-ffnvcodec --enable-nvdec --enable-cuda-llvm --enable-libmp3lame --enable-libopus --enable-libvorbis --enable-libvpx --enable-libx264 --enable-libx265 --enable-libdav1d --enable-libaom --disable-debug --enable-fontconfig --enable-libass --enable-libbluray --enable-libfreetype --enable-libmfx --enable-libmysofa --enable-libopencore-amrnb --enable-libopencore-amrwb --enable-libopenjpeg --enable-libsnappy --enable-libsoxr --enable-libspeex --enable-libtheora --enable-libtwolame --enable-libvidstab --enable-libvo-amrwbenc --enable-libwavpack --enable-libwebp --enable-libxml2 --enable-libzimg --enable-libshine --enable-gpl --enable-avisynth --enable-libxvid --enable-libopenmpt --enable-version3 --enable-librav1e --enable-libsrt --enable-libgsm --enable-libvmaf --enable-chromaprint --enable-decklink --enable-frei0r --enable-libbs2b --enable-libcaca --enable-libcdio --enable-libfdk-aac --enable-libflite --enable-libfribidi --enable-libgme --enable-libilbc --enable-libsvthevc --enable-libsvtav1 --enable-libsvtvp9 --enable-libkvazaar --enable-libmodplug --enable-librtmp --enable-librubberband --enable-libtesseract --enable-libxavs --enable-libzmq --enable-libzvbi --enable-openal --enable-libcodec2 --enable-ladspa --enable-libglslang --enable-vulkan --enable-opencl --enable-opengl --enable-libnpp --enable-libopenh264 --enable-openssl --extra-cflags=-fopenmp --extra-libs=-lgomp --extra-cflags=-DLIBTWOLAME_STATIC --extra-libs=-lstdc++ --extra-cflags=-DCACA_STATIC --extra-cflags=-DMODPLUG_STATIC --extra-cflags=-DCHROMAPRINT_NODLL --extra-libs=-lstdc++ --extra-cflags=-DZMQ_STATIC --extra-libs=-lpsapi --extra-cflags=-DLIBXML_STATIC --extra-libs=-liconv --disable-w32threads --extra-cflags=-DKVZ_STATIC_LIB --enable-nonfree --extra-cflags='-IC:/PROGRA~1/NVIDIA~2/CUDA/v11.0/include' --extra-ldflags='-LC:/PROGRA~1/NVIDIA~2/CUDA/v11.0/lib/x64' --extra-cflags=-DAL_LIBTYPE_STATIC --extra-cflags='-IC:/bin/media-autobuild_suite-master/local64/include/AL'
  libavutil      56. 58.100 / 56. 58.100
  libavformat    58. 51.101 / 58. 51.101
  libavdevice    58. 11.101 / 58. 11.101
  libavfilter     7. 87.100 /  7. 87.100
  libswscale      5.  8.100 /  5.  8.100
  libswresample   3.  8.100 /  3.  8.100
  libpostproc    55.  8.100 / 55.  8.100
  libavcodec     58.101.101 / 58.101.101
Input #0, mov,mp4,m4a,3gp,3g2,mj2, from 'output.mp4':
  Metadata:
    minor_version   : 512
    encoder         : Lavf58.51.101
  Duration: 00:02:01.06, start: 0.000000, bitrate: 10754 kb/s
    Metadata:
    compatible_brands: isomiso2avc1mp41
    Stream #0:0(und): Video: h264 (High) (avc1 / 0x31637661), yuv420p(tv, bt709), 1920x1080 [SAR 1:1 DAR 16:9], 10751 kb/s, 29.97 fps, 29.97 tbr, 30k tbn, 59.94 tbc (default)
      handler_name    : VideoHandler
    major_brand     : isom
Input #1, avi, from '200808.avi':
  Metadata:
    encoder         : Lavf58.49.100
  Duration: 00:02:01.05, start: 0.000000, bitrate: 745549 kb/s
    Stream #1:0: Video: rawvideo (I420 / 0x30323449), yuv420p, 1920x1080, 745750 kb/s, SAR 1:1 DAR 16:9, 29.97 fps, 29.97 tbr, 29.97 tbn, 29.97 tbc
Stream mapping:
  Stream #0:0 (h264) -> libvmaf:main
  Stream #1:0 (rawvideo) -> libvmaf:reference
  libvmaf -> Stream #0:0 (wrapped_avframe)
Press [q] to stop, [?] for help
Output #0, null, to 'pipe:':
  Metadata:
    major_brand     : isom
    minor_version   : 512
    compatible_brands: isomiso2avc1mp41
    encoder         : Lavf58.51.101
    Stream #0:0: Video: wrapped_avframe, yuv420p, 1920x1080 [SAR 1:1 DAR 16:9], q=2-31, 200 kb/s, 29.97 fps, 29.97 tbn, 29.97 tbc (default)
    Metadata:
      encoder         : Lavc58.101.101 wrapped_avframe
frame= 3628 fps= 26 q=-0.0 Lsize=N/A time=00:02:01.05 bitrate=N/A speed=0.858x    
video:1899kB audio:0kB subtitle:0kB other streams:0kB global headers:0kB muxing overhead: unknown
[libvmaf @ 000002e95c98b180] VMAF score: 96.007539
DEBUG ExitCode: 0
155.19MB
DEBUG Invoke-Process
File: ffmpeg
Arg: -y -nostats -analyzeduration 30M -probesize 100M -fflags +discardcorrupt -i 200808.avi -an -c:v h264_nvenc -preset:v p7 -profile:v high -rc:v constqp -rc-lookahead 1 -spatial-aq 0 -temporal-aq 1 -init_qpI 22 -init_qpP 23 -init_qpB 26 -weighted_pred 0 -coder cabac -b_ref_mode 2 -dpb_size 4 -multipass 0 -g 30 -bf 2 -pix_fmt yuv420p -color_range tv -color_primaries bt709 -color_trc bt709 -colorspace bt709 -movflags +faststart output.mp4
ArgList:

ffmpeg version N-98966-g7a89f382a3-g0271098e6c+4 Copyright (c) 2000-2020 the FFmpeg developers
  built with gcc 10.2.0 (Rev1, Built by MSYS2 project)
  configuration:  --cc='ccache gcc' --cxx='ccache g++' --disable-autodetect --enable-amf --enable-bzlib --enable-cuda --enable-cuvid --enable-d3d11va --enable-dxva2 --enable-iconv --enable-lzma --enable-nvenc --enable-zlib --enable-sdl2 --enable-ffnvcodec --enable-nvdec --enable-cuda-llvm --enable-libmp3lame --enable-libopus --enable-libvorbis --enable-libvpx --enable-libx264 --enable-libx265 --enable-libdav1d --enable-libaom --disable-debug --enable-fontconfig --enable-libass --enable-libbluray --enable-libfreetype --enable-libmfx --enable-libmysofa --enable-libopencore-amrnb --enable-libopencore-amrwb --enable-libopenjpeg --enable-libsnappy --enable-libsoxr --enable-libspeex --enable-libtheora --enable-libtwolame --enable-libvidstab --enable-libvo-amrwbenc --enable-libwavpack --enable-libwebp --enable-libxml2 --enable-libzimg --enable-libshine --enable-gpl --enable-avisynth --enable-libxvid --enable-libopenmpt --enable-version3 --enable-librav1e --enable-libsrt --enable-libgsm --enable-libvmaf --enable-chromaprint --enable-decklink --enable-frei0r --enable-libbs2b --enable-libcaca --enable-libcdio --enable-libfdk-aac --enable-libflite --enable-libfribidi --enable-libgme --enable-libilbc --enable-libsvthevc --enable-libsvtav1 --enable-libsvtvp9 --enable-libkvazaar --enable-libmodplug --enable-librtmp --enable-librubberband --enable-libtesseract --enable-libxavs --enable-libzmq --enable-libzvbi --enable-openal --enable-libcodec2 --enable-ladspa --enable-libglslang --enable-vulkan --enable-opencl --enable-opengl --enable-libnpp --enable-libopenh264 --enable-openssl --extra-cflags=-fopenmp --extra-libs=-lgomp --extra-cflags=-DLIBTWOLAME_STATIC --extra-libs=-lstdc++ --extra-cflags=-DCACA_STATIC --extra-cflags=-DMODPLUG_STATIC --extra-cflags=-DCHROMAPRINT_NODLL --extra-libs=-lstdc++ --extra-cflags=-DZMQ_STATIC --extra-libs=-lpsapi --extra-cflags=-DLIBXML_STATIC --extra-libs=-liconv --disable-w32threads --extra-cflags=-DKVZ_STATIC_LIB --enable-nonfree --extra-cflags='-IC:/PROGRA~1/NVIDIA~2/CUDA/v11.0/include' --extra-ldflags='-LC:/PROGRA~1/NVIDIA~2/CUDA/v11.0/lib/x64' --extra-cflags=-DAL_LIBTYPE_STATIC --extra-cflags='-IC:/bin/media-autobuild_suite-master/local64/include/AL'
  libavutil      56. 58.100 / 56. 58.100
  libavformat    58. 51.101 / 58. 51.101
  libavfilter     7. 87.100 /  7. 87.100
  libswscale      5.  8.100 /  5.  8.100
  libswresample   3.  8.100 /  3.  8.100
  libavdevice    58. 11.101 / 58. 11.101
  libpostproc    55.  8.100 / 55.  8.100
  libavcodec     58.101.101 / 58.101.101
Input #0, avi, from '200808.avi':
    encoder         : Lavf58.49.100
  Metadata:
  Duration: 00:02:01.05, start: 0.000000, bitrate: 745549 kb/s
    Stream #0:0: Video: rawvideo (I420 / 0x30323449), yuv420p, 1920x1080, 745750 kb/s, SAR 1:1 DAR 16:9, 29.97 fps, 29.97 tbr, 29.97 tbn, 29.97 tbc
Stream mapping:
Press [q] to stop, [?] for help
  Stream #0:0 -> #0:0 (rawvideo (native) -> h264 (h264_nvenc))
Output #0, mp4, to 'output.mp4':
  Metadata:
    encoder         : Lavf58.51.101
    Stream #0:0: Video: h264 (h264_nvenc) (High) (avc1 / 0x31637661), yuv420p(tv, bt709), 1920x1080 [SAR 1:1 DAR 16:9], q=-1--1, 2000 kb/s, 29.97 fps, 30k tbn, 29.97 tbc
    Metadata:
    Side data:
      cpb: bitrate max/min/avg: 0/0/2000000 buffer size: 4000000 vbv_delay: N/A
      encoder         : Lavc58.101.101 h264_nvenc
[mp4 @ 000001b9554a6c80] Starting second pass: moving the moov atom to the beginning of the file
frame= 3628 fps= 86 q=23.0 Lsize=  145802kB time=00:02:00.95 bitrate=9874.9kbits/s dup=1 drop=0 speed=2.85x    
video:145757kB audio:0kB subtitle:0kB other streams:0kB global headers:0kB muxing overhead: 0.031123%
DEBUG ExitCode: 0
DEBUG Invoke-Process
File: ffmpeg
Arg: -y -nostats -i output.mp4 -i 200808.avi -filter_complex libvmaf=vmaf_v0.6.1.pkl -an -f null -
ArgList:

ffmpeg version N-98966-g7a89f382a3-g0271098e6c+4 Copyright (c) 2000-2020 the FFmpeg developers
  built with gcc 10.2.0 (Rev1, Built by MSYS2 project)
  configuration:  --cc='ccache gcc' --cxx='ccache g++' --disable-autodetect --enable-amf --enable-bzlib --enable-cuda --enable-cuvid --enable-d3d11va --enable-dxva2 --enable-iconv --enable-lzma --enable-nvenc --enable-zlib --enable-sdl2 --enable-ffnvcodec --enable-nvdec --enable-cuda-llvm --enable-libmp3lame --enable-libopus --enable-libvorbis --enable-libvpx --enable-libx264 --enable-libx265 --enable-libdav1d --enable-libaom --disable-debug --enable-fontconfig --enable-libass --enable-libbluray --enable-libfreetype --enable-libmfx --enable-libmysofa --enable-libopencore-amrnb --enable-libopencore-amrwb --enable-libopenjpeg --enable-libsnappy --enable-libsoxr --enable-libspeex --enable-libtheora --enable-libtwolame --enable-libvidstab --enable-libvo-amrwbenc --enable-libwavpack --enable-libwebp --enable-libxml2 --enable-libzimg --enable-libshine --enable-gpl --enable-avisynth --enable-libxvid --enable-libopenmpt --enable-version3 --enable-librav1e --enable-libsrt --enable-libgsm --enable-libvmaf --enable-chromaprint --enable-decklink --enable-frei0r --enable-libbs2b --enable-libcaca --enable-libcdio --enable-libfdk-aac --enable-libflite --enable-libfribidi --enable-libgme --enable-libilbc --enable-libsvthevc --enable-libsvtav1 --enable-libsvtvp9 --enable-libkvazaar --enable-libmodplug --enable-librtmp --enable-librubberband --enable-libtesseract --enable-libxavs --enable-libzmq --enable-libzvbi --enable-openal --enable-libcodec2 --enable-ladspa --enable-libglslang --enable-vulkan --enable-opencl --enable-opengl --enable-libnpp --enable-libopenh264 --enable-openssl --extra-cflags=-fopenmp --extra-libs=-lgomp --extra-cflags=-DLIBTWOLAME_STATIC --extra-libs=-lstdc++ --extra-cflags=-DCACA_STATIC --extra-cflags=-DMODPLUG_STATIC --extra-cflags=-DCHROMAPRINT_NODLL --extra-libs=-lstdc++ --extra-cflags=-DZMQ_STATIC --extra-libs=-lpsapi --extra-cflags=-DLIBXML_STATIC --extra-libs=-liconv --disable-w32threads --extra-cflags=-DKVZ_STATIC_LIB --enable-nonfree --extra-cflags='-IC:/PROGRA~1/NVIDIA~2/CUDA/v11.0/include' --extra-ldflags='-LC:/PROGRA~1/NVIDIA~2/CUDA/v11.0/lib/x64' --extra-cflags=-DAL_LIBTYPE_STATIC --extra-cflags='-IC:/bin/media-autobuild_suite-master/local64/include/AL'
  libavcodec     58.101.101 / 58.101.101
  libavutil      56. 58.100 / 56. 58.100
  libavformat    58. 51.101 / 58. 51.101
  libavdevice    58. 11.101 / 58. 11.101
  libavfilter     7. 87.100 /  7. 87.100
  libswscale      5.  8.100 /  5.  8.100
  libswresample   3.  8.100 /  3.  8.100
  libpostproc    55.  8.100 / 55.  8.100
Input #0, mov,mp4,m4a,3gp,3g2,mj2, from 'output.mp4':
  Metadata:
    major_brand     : isom
    minor_version   : 512
    compatible_brands: isomiso2avc1mp41
  Duration: 00:02:01.06, start: 0.000000, bitrate: 9866 kb/s
    encoder         : Lavf58.51.101
    Stream #0:0(und): Video: h264 (High) (avc1 / 0x31637661), yuv420p(tv, bt709), 1920x1080 [SAR 1:1 DAR 16:9], 9863 kb/s, 29.97 fps, 29.97 tbr, 30k tbn, 59.94 tbc (default)
    Metadata:
      handler_name    : VideoHandler
Input #1, avi, from '200808.avi':
  Metadata:
  Duration: 00:02:01.05, start: 0.000000, bitrate: 745549 kb/s
    encoder         : Lavf58.49.100
    Stream #1:0: Video: rawvideo (I420 / 0x30323449), yuv420p, 1920x1080, 745750 kb/s, SAR 1:1 DAR 16:9, 29.97 fps, 29.97 tbr, 29.97 tbn, 29.97 tbc
Stream mapping:
  Stream #1:0 (rawvideo) -> libvmaf:reference
  Stream #0:0 (h264) -> libvmaf:main
Press [q] to stop, [?] for help
  libvmaf -> Stream #0:0 (wrapped_avframe)
Output #0, null, to 'pipe:':
  Metadata:
    major_brand     : isom
    compatible_brands: isomiso2avc1mp41
    encoder         : Lavf58.51.101
    minor_version   : 512
    Stream #0:0: Video: wrapped_avframe, yuv420p, 1920x1080 [SAR 1:1 DAR 16:9], q=2-31, 200 kb/s, 29.97 fps, 29.97 tbn, 29.97 tbc (default)
    Metadata:
      encoder         : Lavc58.101.101 wrapped_avframe
frame= 3628 fps= 25 q=-0.0 Lsize=N/A time=00:02:01.05 bitrate=N/A speed=0.85x    
video:1899kB audio:0kB subtitle:0kB other streams:0kB global headers:0kB muxing overhead: unknown
[libvmaf @ 000001485f427440] VMAF score: 95.957781
DEBUG ExitCode: 0
142.39MB
DEBUG Invoke-Process
File: ffmpeg
Arg: -y -nostats -analyzeduration 30M -probesize 100M -fflags +discardcorrupt -i 200808.avi -an -c:v h264_nvenc -preset:v p7 -profile:v high -rc:v constqp -rc-lookahead 1 -spatial-aq 0 -temporal-aq 1 -init_qpI 22 -init_qpP 23 -init_qpB 26 -weighted_pred 0 -coder cabac -b_ref_mode 2 -dpb_size 4 -multipass 0 -g 60 -bf 2 -pix_fmt yuv420p -color_range tv -color_primaries bt709 -color_trc bt709 -colorspace bt709 -movflags +faststart output.mp4
ArgList:

ffmpeg version N-98966-g7a89f382a3-g0271098e6c+4 Copyright (c) 2000-2020 the FFmpeg developers
  built with gcc 10.2.0 (Rev1, Built by MSYS2 project)
  libavutil      56. 58.100 / 56. 58.100
  configuration:  --cc='ccache gcc' --cxx='ccache g++' --disable-autodetect --enable-amf --enable-bzlib --enable-cuda --enable-cuvid --enable-d3d11va --enable-dxva2 --enable-iconv --enable-lzma --enable-nvenc --enable-zlib --enable-sdl2 --enable-ffnvcodec --enable-nvdec --enable-cuda-llvm --enable-libmp3lame --enable-libopus --enable-libvorbis --enable-libvpx --enable-libx264 --enable-libx265 --enable-libdav1d --enable-libaom --disable-debug --enable-fontconfig --enable-libass --enable-libbluray --enable-libfreetype --enable-libmfx --enable-libmysofa --enable-libopencore-amrnb --enable-libopencore-amrwb --enable-libopenjpeg --enable-libsnappy --enable-libsoxr --enable-libspeex --enable-libtheora --enable-libtwolame --enable-libvidstab --enable-libvo-amrwbenc --enable-libwavpack --enable-libwebp --enable-libxml2 --enable-libzimg --enable-libshine --enable-gpl --enable-avisynth --enable-libxvid --enable-libopenmpt --enable-version3 --enable-librav1e --enable-libsrt --enable-libgsm --enable-libvmaf --enable-chromaprint --enable-decklink --enable-frei0r --enable-libbs2b --enable-libcaca --enable-libcdio --enable-libfdk-aac --enable-libflite --enable-libfribidi --enable-libgme --enable-libilbc --enable-libsvthevc --enable-libsvtav1 --enable-libsvtvp9 --enable-libkvazaar --enable-libmodplug --enable-librtmp --enable-librubberband --enable-libtesseract --enable-libxavs --enable-libzmq --enable-libzvbi --enable-openal --enable-libcodec2 --enable-ladspa --enable-libglslang --enable-vulkan --enable-opencl --enable-opengl --enable-libnpp --enable-libopenh264 --enable-openssl --extra-cflags=-fopenmp --extra-libs=-lgomp --extra-cflags=-DLIBTWOLAME_STATIC --extra-libs=-lstdc++ --extra-cflags=-DCACA_STATIC --extra-cflags=-DMODPLUG_STATIC --extra-cflags=-DCHROMAPRINT_NODLL --extra-libs=-lstdc++ --extra-cflags=-DZMQ_STATIC --extra-libs=-lpsapi --extra-cflags=-DLIBXML_STATIC --extra-libs=-liconv --disable-w32threads --extra-cflags=-DKVZ_STATIC_LIB --enable-nonfree --extra-cflags='-IC:/PROGRA~1/NVIDIA~2/CUDA/v11.0/include' --extra-ldflags='-LC:/PROGRA~1/NVIDIA~2/CUDA/v11.0/lib/x64' --extra-cflags=-DAL_LIBTYPE_STATIC --extra-cflags='-IC:/bin/media-autobuild_suite-master/local64/include/AL'
  libavformat    58. 51.101 / 58. 51.101
  libavdevice    58. 11.101 / 58. 11.101
  libavfilter     7. 87.100 /  7. 87.100
  libswscale      5.  8.100 /  5.  8.100
  libswresample   3.  8.100 /  3.  8.100
  libpostproc    55.  8.100 / 55.  8.100
  libavcodec     58.101.101 / 58.101.101
Input #0, avi, from '200808.avi':
  Metadata:
  Duration: 00:02:01.05, start: 0.000000, bitrate: 745549 kb/s
    encoder         : Lavf58.49.100
    Stream #0:0: Video: rawvideo (I420 / 0x30323449), yuv420p, 1920x1080, 745750 kb/s, SAR 1:1 DAR 16:9, 29.97 fps, 29.97 tbr, 29.97 tbn, 29.97 tbc
Stream mapping:
  Stream #0:0 -> #0:0 (rawvideo (native) -> h264 (h264_nvenc))
Press [q] to stop, [?] for help
Output #0, mp4, to 'output.mp4':
  Metadata:
    encoder         : Lavf58.51.101
    Metadata:
      encoder         : Lavc58.101.101 h264_nvenc
    Side data:
      cpb: bitrate max/min/avg: 0/0/2000000 buffer size: 4000000 vbv_delay: N/A
    Stream #0:0: Video: h264 (h264_nvenc) (High) (avc1 / 0x31637661), yuv420p(tv, bt709), 1920x1080 [SAR 1:1 DAR 16:9], q=-1--1, 2000 kb/s, 29.97 fps, 30k tbn, 29.97 tbc
[mp4 @ 000001ee3c906c80] Starting second pass: moving the moov atom to the beginning of the file
frame= 3628 fps= 84 q=23.0 Lsize=  139415kB time=00:02:00.95 bitrate=9442.3kbits/s dup=1 drop=0 speed=2.79x    
video:139370kB audio:0kB subtitle:0kB other streams:0kB global headers:0kB muxing overhead: 0.032421%
DEBUG ExitCode: 0
DEBUG Invoke-Process
File: ffmpeg
Arg: -y -nostats -i output.mp4 -i 200808.avi -filter_complex libvmaf=vmaf_v0.6.1.pkl -an -f null -
ArgList:

ffmpeg version N-98966-g7a89f382a3-g0271098e6c+4 Copyright (c) 2000-2020 the FFmpeg developers
  built with gcc 10.2.0 (Rev1, Built by MSYS2 project)
  configuration:  --cc='ccache gcc' --cxx='ccache g++' --disable-autodetect --enable-amf --enable-bzlib --enable-cuda --enable-cuvid --enable-d3d11va --enable-dxva2 --enable-iconv --enable-lzma --enable-nvenc --enable-zlib --enable-sdl2 --enable-ffnvcodec --enable-nvdec --enable-cuda-llvm --enable-libmp3lame --enable-libopus --enable-libvorbis --enable-libvpx --enable-libx264 --enable-libx265 --enable-libdav1d --enable-libaom --disable-debug --enable-fontconfig --enable-libass --enable-libbluray --enable-libfreetype --enable-libmfx --enable-libmysofa --enable-libopencore-amrnb --enable-libopencore-amrwb --enable-libopenjpeg --enable-libsnappy --enable-libsoxr --enable-libspeex --enable-libtheora --enable-libtwolame --enable-libvidstab --enable-libvo-amrwbenc --enable-libwavpack --enable-libwebp --enable-libxml2 --enable-libzimg --enable-libshine --enable-gpl --enable-avisynth --enable-libxvid --enable-libopenmpt --enable-version3 --enable-librav1e --enable-libsrt --enable-libgsm --enable-libvmaf --enable-chromaprint --enable-decklink --enable-frei0r --enable-libbs2b --enable-libcaca --enable-libcdio --enable-libfdk-aac --enable-libflite --enable-libfribidi --enable-libgme --enable-libilbc --enable-libsvthevc --enable-libsvtav1 --enable-libsvtvp9 --enable-libkvazaar --enable-libmodplug --enable-librtmp --enable-librubberband --enable-libtesseract --enable-libxavs --enable-libzmq --enable-libzvbi --enable-openal --enable-libcodec2 --enable-ladspa --enable-libglslang --enable-vulkan --enable-opencl --enable-opengl --enable-libnpp --enable-libopenh264 --enable-openssl --extra-cflags=-fopenmp --extra-libs=-lgomp --extra-cflags=-DLIBTWOLAME_STATIC --extra-libs=-lstdc++ --extra-cflags=-DCACA_STATIC --extra-cflags=-DMODPLUG_STATIC --extra-cflags=-DCHROMAPRINT_NODLL --extra-libs=-lstdc++ --extra-cflags=-DZMQ_STATIC --extra-libs=-lpsapi --extra-cflags=-DLIBXML_STATIC --extra-libs=-liconv --disable-w32threads --extra-cflags=-DKVZ_STATIC_LIB --enable-nonfree --extra-cflags='-IC:/PROGRA~1/NVIDIA~2/CUDA/v11.0/include' --extra-ldflags='-LC:/PROGRA~1/NVIDIA~2/CUDA/v11.0/lib/x64' --extra-cflags=-DAL_LIBTYPE_STATIC --extra-cflags='-IC:/bin/media-autobuild_suite-master/local64/include/AL'
  libavutil      56. 58.100 / 56. 58.100
  libavformat    58. 51.101 / 58. 51.101
  libavdevice    58. 11.101 / 58. 11.101
  libavfilter     7. 87.100 /  7. 87.100
  libswscale      5.  8.100 /  5.  8.100
  libavcodec     58.101.101 / 58.101.101
  libpostproc    55.  8.100 / 55.  8.100
  libswresample   3.  8.100 /  3.  8.100
Input #0, mov,mp4,m4a,3gp,3g2,mj2, from 'output.mp4':
  Metadata:
    minor_version   : 512
    major_brand     : isom
    encoder         : Lavf58.51.101
  Duration: 00:02:01.06, start: 0.000000, bitrate: 9434 kb/s
    compatible_brands: isomiso2avc1mp41
    Stream #0:0(und): Video: h264 (High) (avc1 / 0x31637661), yuv420p(tv, bt709), 1920x1080 [SAR 1:1 DAR 16:9], 9431 kb/s, 29.97 fps, 29.97 tbr, 30k tbn, 59.94 tbc (default)
      handler_name    : VideoHandler
    Metadata:
Input #1, avi, from '200808.avi':
  Metadata:
    Stream #1:0: Video: rawvideo (I420 / 0x30323449), yuv420p, 1920x1080, 745750 kb/s, SAR 1:1 DAR 16:9, 29.97 fps, 29.97 tbr, 29.97 tbn, 29.97 tbc
    encoder         : Lavf58.49.100
  Duration: 00:02:01.05, start: 0.000000, bitrate: 745549 kb/s
Stream mapping:
  Stream #0:0 (h264) -> libvmaf:main
  Stream #1:0 (rawvideo) -> libvmaf:reference
  libvmaf -> Stream #0:0 (wrapped_avframe)
Press [q] to stop, [?] for help
Output #0, null, to 'pipe:':
  Metadata:
    minor_version   : 512
    encoder         : Lavf58.51.101
    major_brand     : isom
    compatible_brands: isomiso2avc1mp41
      encoder         : Lavc58.101.101 wrapped_avframe
    Stream #0:0: Video: wrapped_avframe, yuv420p, 1920x1080 [SAR 1:1 DAR 16:9], q=2-31, 200 kb/s, 29.97 fps, 29.97 tbn, 29.97 tbc (default)
    Metadata:
frame= 3628 fps= 26 q=-0.0 Lsize=N/A time=00:02:01.05 bitrate=N/A speed=0.868x    
video:1899kB audio:0kB subtitle:0kB other streams:0kB global headers:0kB muxing overhead: unknown
[libvmaf @ 00000239e986ea40] VMAF score: 95.941220
DEBUG ExitCode: 0
136.15MB
DEBUG Invoke-Process
File: ffmpeg
Arg: -y -nostats -analyzeduration 30M -probesize 100M -fflags +discardcorrupt -i 200808.avi -an -c:v h264_nvenc -preset:v p7 -profile:v high -rc:v constqp -rc-lookahead 1 -spatial-aq 0 -temporal-aq 1 -init_qpI 22 -init_qpP 23 -init_qpB 26 -weighted_pred 0 -coder cabac -b_ref_mode 2 -dpb_size 4 -multipass 0 -g 90 -bf 2 -pix_fmt yuv420p -color_range tv -color_primaries bt709 -color_trc bt709 -colorspace bt709 -movflags +faststart output.mp4
ArgList:

ffmpeg version N-98966-g7a89f382a3-g0271098e6c+4 Copyright (c) 2000-2020 the FFmpeg developers
  built with gcc 10.2.0 (Rev1, Built by MSYS2 project)
  configuration:  --cc='ccache gcc' --cxx='ccache g++' --disable-autodetect --enable-amf --enable-bzlib --enable-cuda --enable-cuvid --enable-d3d11va --enable-dxva2 --enable-iconv --enable-lzma --enable-nvenc --enable-zlib --enable-sdl2 --enable-ffnvcodec --enable-nvdec --enable-cuda-llvm --enable-libmp3lame --enable-libopus --enable-libvorbis --enable-libvpx --enable-libx264 --enable-libx265 --enable-libdav1d --enable-libaom --disable-debug --enable-fontconfig --enable-libass --enable-libbluray --enable-libfreetype --enable-libmfx --enable-libmysofa --enable-libopencore-amrnb --enable-libopencore-amrwb --enable-libopenjpeg --enable-libsnappy --enable-libsoxr --enable-libspeex --enable-libtheora --enable-libtwolame --enable-libvidstab --enable-libvo-amrwbenc --enable-libwavpack --enable-libwebp --enable-libxml2 --enable-libzimg --enable-libshine --enable-gpl --enable-avisynth --enable-libxvid --enable-libopenmpt --enable-version3 --enable-librav1e --enable-libsrt --enable-libgsm --enable-libvmaf --enable-chromaprint --enable-decklink --enable-frei0r --enable-libbs2b --enable-libcaca --enable-libcdio --enable-libfdk-aac --enable-libflite --enable-libfribidi --enable-libgme --enable-libilbc --enable-libsvthevc --enable-libsvtav1 --enable-libsvtvp9 --enable-libkvazaar --enable-libmodplug --enable-librtmp --enable-librubberband --enable-libtesseract --enable-libxavs --enable-libzmq --enable-libzvbi --enable-openal --enable-libcodec2 --enable-ladspa --enable-libglslang --enable-vulkan --enable-opencl --enable-opengl --enable-libnpp --enable-libopenh264 --enable-openssl --extra-cflags=-fopenmp --extra-libs=-lgomp --extra-cflags=-DLIBTWOLAME_STATIC --extra-libs=-lstdc++ --extra-cflags=-DCACA_STATIC --extra-cflags=-DMODPLUG_STATIC --extra-cflags=-DCHROMAPRINT_NODLL --extra-libs=-lstdc++ --extra-cflags=-DZMQ_STATIC --extra-libs=-lpsapi --extra-cflags=-DLIBXML_STATIC --extra-libs=-liconv --disable-w32threads --extra-cflags=-DKVZ_STATIC_LIB --enable-nonfree --extra-cflags='-IC:/PROGRA~1/NVIDIA~2/CUDA/v11.0/include' --extra-ldflags='-LC:/PROGRA~1/NVIDIA~2/CUDA/v11.0/lib/x64' --extra-cflags=-DAL_LIBTYPE_STATIC --extra-cflags='-IC:/bin/media-autobuild_suite-master/local64/include/AL'
  libavutil      56. 58.100 / 56. 58.100
  libavcodec     58.101.101 / 58.101.101
  libavformat    58. 51.101 / 58. 51.101
  libavdevice    58. 11.101 / 58. 11.101
  libavfilter     7. 87.100 /  7. 87.100
  libswresample   3.  8.100 /  3.  8.100
  libpostproc    55.  8.100 / 55.  8.100
  libswscale      5.  8.100 /  5.  8.100
Input #0, avi, from '200808.avi':
  Metadata:
    encoder         : Lavf58.49.100
  Duration: 00:02:01.05, start: 0.000000, bitrate: 745549 kb/s
    Stream #0:0: Video: rawvideo (I420 / 0x30323449), yuv420p, 1920x1080, 745750 kb/s, SAR 1:1 DAR 16:9, 29.97 fps, 29.97 tbr, 29.97 tbn, 29.97 tbc
Stream mapping:
  Stream #0:0 -> #0:0 (rawvideo (native) -> h264 (h264_nvenc))
Press [q] to stop, [?] for help
Output #0, mp4, to 'output.mp4':
  Metadata:
    encoder         : Lavf58.51.101
    Metadata:
    Stream #0:0: Video: h264 (h264_nvenc) (High) (avc1 / 0x31637661), yuv420p(tv, bt709), 1920x1080 [SAR 1:1 DAR 16:9], q=-1--1, 2000 kb/s, 29.97 fps, 30k tbn, 29.97 tbc
      encoder         : Lavc58.101.101 h264_nvenc
    Side data:
      cpb: bitrate max/min/avg: 0/0/2000000 buffer size: 4000000 vbv_delay: N/A
[mp4 @ 00000186121c6c80] Starting second pass: moving the moov atom to the beginning of the file
frame= 3628 fps= 84 q=22.0 Lsize=  137541kB time=00:02:00.95 bitrate=9315.4kbits/s dup=1 drop=0 speed=2.79x    
video:137496kB audio:0kB subtitle:0kB other streams:0kB global headers:0kB muxing overhead: 0.032766%
DEBUG ExitCode: 0
DEBUG Invoke-Process
File: ffmpeg
Arg: -y -nostats -i output.mp4 -i 200808.avi -filter_complex libvmaf=vmaf_v0.6.1.pkl -an -f null -
ArgList:

ffmpeg version N-98966-g7a89f382a3-g0271098e6c+4 Copyright (c) 2000-2020 the FFmpeg developers
  built with gcc 10.2.0 (Rev1, Built by MSYS2 project)
  configuration:  --cc='ccache gcc' --cxx='ccache g++' --disable-autodetect --enable-amf --enable-bzlib --enable-cuda --enable-cuvid --enable-d3d11va --enable-dxva2 --enable-iconv --enable-lzma --enable-nvenc --enable-zlib --enable-sdl2 --enable-ffnvcodec --enable-nvdec --enable-cuda-llvm --enable-libmp3lame --enable-libopus --enable-libvorbis --enable-libvpx --enable-libx264 --enable-libx265 --enable-libdav1d --enable-libaom --disable-debug --enable-fontconfig --enable-libass --enable-libbluray --enable-libfreetype --enable-libmfx --enable-libmysofa --enable-libopencore-amrnb --enable-libopencore-amrwb --enable-libopenjpeg --enable-libsnappy --enable-libsoxr --enable-libspeex --enable-libtheora --enable-libtwolame --enable-libvidstab --enable-libvo-amrwbenc --enable-libwavpack --enable-libwebp --enable-libxml2 --enable-libzimg --enable-libshine --enable-gpl --enable-avisynth --enable-libxvid --enable-libopenmpt --enable-version3 --enable-librav1e --enable-libsrt --enable-libgsm --enable-libvmaf --enable-chromaprint --enable-decklink --enable-frei0r --enable-libbs2b --enable-libcaca --enable-libcdio --enable-libfdk-aac --enable-libflite --enable-libfribidi --enable-libgme --enable-libilbc --enable-libsvthevc --enable-libsvtav1 --enable-libsvtvp9 --enable-libkvazaar --enable-libmodplug --enable-librtmp --enable-librubberband --enable-libtesseract --enable-libxavs --enable-libzmq --enable-libzvbi --enable-openal --enable-libcodec2 --enable-ladspa --enable-libglslang --enable-vulkan --enable-opencl --enable-opengl --enable-libnpp --enable-libopenh264 --enable-openssl --extra-cflags=-fopenmp --extra-libs=-lgomp --extra-cflags=-DLIBTWOLAME_STATIC --extra-libs=-lstdc++ --extra-cflags=-DCACA_STATIC --extra-cflags=-DMODPLUG_STATIC --extra-cflags=-DCHROMAPRINT_NODLL --extra-libs=-lstdc++ --extra-cflags=-DZMQ_STATIC --extra-libs=-lpsapi --extra-cflags=-DLIBXML_STATIC --extra-libs=-liconv --disable-w32threads --extra-cflags=-DKVZ_STATIC_LIB --enable-nonfree --extra-cflags='-IC:/PROGRA~1/NVIDIA~2/CUDA/v11.0/include' --extra-ldflags='-LC:/PROGRA~1/NVIDIA~2/CUDA/v11.0/lib/x64' --extra-cflags=-DAL_LIBTYPE_STATIC --extra-cflags='-IC:/bin/media-autobuild_suite-master/local64/include/AL'
  libavcodec     58.101.101 / 58.101.101
  libavutil      56. 58.100 / 56. 58.100
  libavformat    58. 51.101 / 58. 51.101
  libavfilter     7. 87.100 /  7. 87.100
  libswscale      5.  8.100 /  5.  8.100
  libswresample   3.  8.100 /  3.  8.100
  libpostproc    55.  8.100 / 55.  8.100
  libavdevice    58. 11.101 / 58. 11.101
Input #0, mov,mp4,m4a,3gp,3g2,mj2, from 'output.mp4':
  Metadata:
    major_brand     : isom
    compatible_brands: isomiso2avc1mp41
    encoder         : Lavf58.51.101
    minor_version   : 512
  Duration: 00:02:01.06, start: 0.000000, bitrate: 9307 kb/s
      handler_name    : VideoHandler
    Metadata:
    Stream #0:0(und): Video: h264 (High) (avc1 / 0x31637661), yuv420p(tv, bt709), 1920x1080 [SAR 1:1 DAR 16:9], 9304 kb/s, 29.97 fps, 29.97 tbr, 30k tbn, 59.94 tbc (default)
Input #1, avi, from '200808.avi':
  Metadata:
    encoder         : Lavf58.49.100
  Duration: 00:02:01.05, start: 0.000000, bitrate: 745549 kb/s
    Stream #1:0: Video: rawvideo (I420 / 0x30323449), yuv420p, 1920x1080, 745750 kb/s, SAR 1:1 DAR 16:9, 29.97 fps, 29.97 tbr, 29.97 tbn, 29.97 tbc
Stream mapping:
  Stream #0:0 (h264) -> libvmaf:main
  Stream #1:0 (rawvideo) -> libvmaf:reference
Press [q] to stop, [?] for help
  libvmaf -> Stream #0:0 (wrapped_avframe)
Output #0, null, to 'pipe:':
  Metadata:
    major_brand     : isom
    minor_version   : 512
    encoder         : Lavf58.51.101
    Stream #0:0: Video: wrapped_avframe, yuv420p, 1920x1080 [SAR 1:1 DAR 16:9], q=2-31, 200 kb/s, 29.97 fps, 29.97 tbn, 29.97 tbc (default)
    Metadata:
      encoder         : Lavc58.101.101 wrapped_avframe
    compatible_brands: isomiso2avc1mp41
frame= 3628 fps= 26 q=-0.0 Lsize=N/A time=00:02:01.05 bitrate=N/A speed=0.869x    
video:1899kB audio:0kB subtitle:0kB other streams:0kB global headers:0kB muxing overhead: unknown
[libvmaf @ 000001e242e0b000] VMAF score: 95.937401
DEBUG ExitCode: 0
134.32MB
DEBUG Invoke-Process
File: ffmpeg
Arg: -y -nostats -analyzeduration 30M -probesize 100M -fflags +discardcorrupt -i 200808.avi -an -c:v h264_nvenc -preset:v p7 -profile:v high -rc:v constqp -rc-lookahead 1 -spatial-aq 0 -temporal-aq 1 -init_qpI 22 -init_qpP 23 -init_qpB 26 -weighted_pred 0 -coder cabac -b_ref_mode 2 -dpb_size 4 -multipass 0 -g 120 -bf 2 -pix_fmt yuv420p -color_range tv -color_primaries bt709 -color_trc bt709 -colorspace bt709 -movflags +faststart output.mp4
ArgList:

ffmpeg version N-98966-g7a89f382a3-g0271098e6c+4 Copyright (c) 2000-2020 the FFmpeg developers
  built with gcc 10.2.0 (Rev1, Built by MSYS2 project)
  configuration:  --cc='ccache gcc' --cxx='ccache g++' --disable-autodetect --enable-amf --enable-bzlib --enable-cuda --enable-cuvid --enable-d3d11va --enable-dxva2 --enable-iconv --enable-lzma --enable-nvenc --enable-zlib --enable-sdl2 --enable-ffnvcodec --enable-nvdec --enable-cuda-llvm --enable-libmp3lame --enable-libopus --enable-libvorbis --enable-libvpx --enable-libx264 --enable-libx265 --enable-libdav1d --enable-libaom --disable-debug --enable-fontconfig --enable-libass --enable-libbluray --enable-libfreetype --enable-libmfx --enable-libmysofa --enable-libopencore-amrnb --enable-libopencore-amrwb --enable-libopenjpeg --enable-libsnappy --enable-libsoxr --enable-libspeex --enable-libtheora --enable-libtwolame --enable-libvidstab --enable-libvo-amrwbenc --enable-libwavpack --enable-libwebp --enable-libxml2 --enable-libzimg --enable-libshine --enable-gpl --enable-avisynth --enable-libxvid --enable-libopenmpt --enable-version3 --enable-librav1e --enable-libsrt --enable-libgsm --enable-libvmaf --enable-chromaprint --enable-decklink --enable-frei0r --enable-libbs2b --enable-libcaca --enable-libcdio --enable-libfdk-aac --enable-libflite --enable-libfribidi --enable-libgme --enable-libilbc --enable-libsvthevc --enable-libsvtav1 --enable-libsvtvp9 --enable-libkvazaar --enable-libmodplug --enable-librtmp --enable-librubberband --enable-libtesseract --enable-libxavs --enable-libzmq --enable-libzvbi --enable-openal --enable-libcodec2 --enable-ladspa --enable-libglslang --enable-vulkan --enable-opencl --enable-opengl --enable-libnpp --enable-libopenh264 --enable-openssl --extra-cflags=-fopenmp --extra-libs=-lgomp --extra-cflags=-DLIBTWOLAME_STATIC --extra-libs=-lstdc++ --extra-cflags=-DCACA_STATIC --extra-cflags=-DMODPLUG_STATIC --extra-cflags=-DCHROMAPRINT_NODLL --extra-libs=-lstdc++ --extra-cflags=-DZMQ_STATIC --extra-libs=-lpsapi --extra-cflags=-DLIBXML_STATIC --extra-libs=-liconv --disable-w32threads --extra-cflags=-DKVZ_STATIC_LIB --enable-nonfree --extra-cflags='-IC:/PROGRA~1/NVIDIA~2/CUDA/v11.0/include' --extra-ldflags='-LC:/PROGRA~1/NVIDIA~2/CUDA/v11.0/lib/x64' --extra-cflags=-DAL_LIBTYPE_STATIC --extra-cflags='-IC:/bin/media-autobuild_suite-master/local64/include/AL'
  libavutil      56. 58.100 / 56. 58.100
  libavformat    58. 51.101 / 58. 51.101
  libavdevice    58. 11.101 / 58. 11.101
  libavfilter     7. 87.100 /  7. 87.100
  libswscale      5.  8.100 /  5.  8.100
  libswresample   3.  8.100 /  3.  8.100
  libpostproc    55.  8.100 / 55.  8.100
  libavcodec     58.101.101 / 58.101.101
Input #0, avi, from '200808.avi':
    encoder         : Lavf58.49.100
  Duration: 00:02:01.05, start: 0.000000, bitrate: 745549 kb/s
  Metadata:
    Stream #0:0: Video: rawvideo (I420 / 0x30323449), yuv420p, 1920x1080, 745750 kb/s, SAR 1:1 DAR 16:9, 29.97 fps, 29.97 tbr, 29.97 tbn, 29.97 tbc
Stream mapping:
  Stream #0:0 -> #0:0 (rawvideo (native) -> h264 (h264_nvenc))
Press [q] to stop, [?] for help
Output #0, mp4, to 'output.mp4':
  Metadata:
    Stream #0:0: Video: h264 (h264_nvenc) (High) (avc1 / 0x31637661), yuv420p(tv, bt709), 1920x1080 [SAR 1:1 DAR 16:9], q=-1--1, 2000 kb/s, 29.97 fps, 30k tbn, 29.97 tbc
    encoder         : Lavf58.51.101
      encoder         : Lavc58.101.101 h264_nvenc
      cpb: bitrate max/min/avg: 0/0/2000000 buffer size: 4000000 vbv_delay: N/A
    Side data:
    Metadata:
[mp4 @ 000001f6260d6c80] Starting second pass: moving the moov atom to the beginning of the file
frame= 3628 fps= 84 q=23.0 Lsize=  136171kB time=00:02:00.95 bitrate=9222.6kbits/s dup=1 drop=0 speed=2.79x    
video:136126kB audio:0kB subtitle:0kB other streams:0kB global headers:0kB muxing overhead: 0.033130%
DEBUG ExitCode: 0
DEBUG Invoke-Process
File: ffmpeg
Arg: -y -nostats -i output.mp4 -i 200808.avi -filter_complex libvmaf=vmaf_v0.6.1.pkl -an -f null -
ArgList:

ffmpeg version N-98966-g7a89f382a3-g0271098e6c+4 Copyright (c) 2000-2020 the FFmpeg developers
  built with gcc 10.2.0 (Rev1, Built by MSYS2 project)
  configuration:  --cc='ccache gcc' --cxx='ccache g++' --disable-autodetect --enable-amf --enable-bzlib --enable-cuda --enable-cuvid --enable-d3d11va --enable-dxva2 --enable-iconv --enable-lzma --enable-nvenc --enable-zlib --enable-sdl2 --enable-ffnvcodec --enable-nvdec --enable-cuda-llvm --enable-libmp3lame --enable-libopus --enable-libvorbis --enable-libvpx --enable-libx264 --enable-libx265 --enable-libdav1d --enable-libaom --disable-debug --enable-fontconfig --enable-libass --enable-libbluray --enable-libfreetype --enable-libmfx --enable-libmysofa --enable-libopencore-amrnb --enable-libopencore-amrwb --enable-libopenjpeg --enable-libsnappy --enable-libsoxr --enable-libspeex --enable-libtheora --enable-libtwolame --enable-libvidstab --enable-libvo-amrwbenc --enable-libwavpack --enable-libwebp --enable-libxml2 --enable-libzimg --enable-libshine --enable-gpl --enable-avisynth --enable-libxvid --enable-libopenmpt --enable-version3 --enable-librav1e --enable-libsrt --enable-libgsm --enable-libvmaf --enable-chromaprint --enable-decklink --enable-frei0r --enable-libbs2b --enable-libcaca --enable-libcdio --enable-libfdk-aac --enable-libflite --enable-libfribidi --enable-libgme --enable-libilbc --enable-libsvthevc --enable-libsvtav1 --enable-libsvtvp9 --enable-libkvazaar --enable-libmodplug --enable-librtmp --enable-librubberband --enable-libtesseract --enable-libxavs --enable-libzmq --enable-libzvbi --enable-openal --enable-libcodec2 --enable-ladspa --enable-libglslang --enable-vulkan --enable-opencl --enable-opengl --enable-libnpp --enable-libopenh264 --enable-openssl --extra-cflags=-fopenmp --extra-libs=-lgomp --extra-cflags=-DLIBTWOLAME_STATIC --extra-libs=-lstdc++ --extra-cflags=-DCACA_STATIC --extra-cflags=-DMODPLUG_STATIC --extra-cflags=-DCHROMAPRINT_NODLL --extra-libs=-lstdc++ --extra-cflags=-DZMQ_STATIC --extra-libs=-lpsapi --extra-cflags=-DLIBXML_STATIC --extra-libs=-liconv --disable-w32threads --extra-cflags=-DKVZ_STATIC_LIB --enable-nonfree --extra-cflags='-IC:/PROGRA~1/NVIDIA~2/CUDA/v11.0/include' --extra-ldflags='-LC:/PROGRA~1/NVIDIA~2/CUDA/v11.0/lib/x64' --extra-cflags=-DAL_LIBTYPE_STATIC --extra-cflags='-IC:/bin/media-autobuild_suite-master/local64/include/AL'
  libavutil      56. 58.100 / 56. 58.100
  libavformat    58. 51.101 / 58. 51.101
  libavcodec     58.101.101 / 58.101.101
  libavdevice    58. 11.101 / 58. 11.101
  libswscale      5.  8.100 /  5.  8.100
  libavfilter     7. 87.100 /  7. 87.100
  libswresample   3.  8.100 /  3.  8.100
  libpostproc    55.  8.100 / 55.  8.100
Input #0, mov,mp4,m4a,3gp,3g2,mj2, from 'output.mp4':
    major_brand     : isom
  Metadata:
    minor_version   : 512
    encoder         : Lavf58.51.101
    compatible_brands: isomiso2avc1mp41
  Duration: 00:02:01.06, start: 0.000000, bitrate: 9214 kb/s
    Metadata:
    Stream #0:0(und): Video: h264 (High) (avc1 / 0x31637661), yuv420p(tv, bt709), 1920x1080 [SAR 1:1 DAR 16:9], 9211 kb/s, 29.97 fps, 29.97 tbr, 30k tbn, 59.94 tbc (default)
      handler_name    : VideoHandler
Input #1, avi, from '200808.avi':
  Metadata:
    encoder         : Lavf58.49.100
  Duration: 00:02:01.05, start: 0.000000, bitrate: 745549 kb/s
    Stream #1:0: Video: rawvideo (I420 / 0x30323449), yuv420p, 1920x1080, 745750 kb/s, SAR 1:1 DAR 16:9, 29.97 fps, 29.97 tbr, 29.97 tbn, 29.97 tbc
Stream mapping:
  Stream #0:0 (h264) -> libvmaf:main
  Stream #1:0 (rawvideo) -> libvmaf:reference
  libvmaf -> Stream #0:0 (wrapped_avframe)
Press [q] to stop, [?] for help
Output #0, null, to 'pipe:':
  Metadata:
    major_brand     : isom
    compatible_brands: isomiso2avc1mp41
    encoder         : Lavf58.51.101
    minor_version   : 512
    Stream #0:0: Video: wrapped_avframe, yuv420p, 1920x1080 [SAR 1:1 DAR 16:9], q=2-31, 200 kb/s, 29.97 fps, 29.97 tbn, 29.97 tbc (default)
    Metadata:
      encoder         : Lavc58.101.101 wrapped_avframe
frame= 3628 fps= 27 q=-0.0 Lsize=N/A time=00:02:01.05 bitrate=N/A speed=0.885x    
video:1899kB audio:0kB subtitle:0kB other streams:0kB global headers:0kB muxing overhead: unknown
[libvmaf @ 0000024a9c7ee9c0] VMAF score: 95.938858
DEBUG ExitCode: 0
132.98MB
DEBUG Invoke-Process
File: ffmpeg
Arg: -y -nostats -analyzeduration 30M -probesize 100M -fflags +discardcorrupt -i 200808.avi -an -c:v h264_nvenc -preset:v p7 -profile:v high -rc:v constqp -rc-lookahead 1 -spatial-aq 0 -temporal-aq 1 -init_qpI 22 -init_qpP 23 -init_qpB 26 -weighted_pred 0 -coder cabac -b_ref_mode 2 -dpb_size 4 -multipass 0 -g 150 -bf 2 -pix_fmt yuv420p -color_range tv -color_primaries bt709 -color_trc bt709 -colorspace bt709 -movflags +faststart output.mp4
ArgList:

ffmpeg version N-98966-g7a89f382a3-g0271098e6c+4 Copyright (c) 2000-2020 the FFmpeg developers
  built with gcc 10.2.0 (Rev1, Built by MSYS2 project)
  configuration:  --cc='ccache gcc' --cxx='ccache g++' --disable-autodetect --enable-amf --enable-bzlib --enable-cuda --enable-cuvid --enable-d3d11va --enable-dxva2 --enable-iconv --enable-lzma --enable-nvenc --enable-zlib --enable-sdl2 --enable-ffnvcodec --enable-nvdec --enable-cuda-llvm --enable-libmp3lame --enable-libopus --enable-libvorbis --enable-libvpx --enable-libx264 --enable-libx265 --enable-libdav1d --enable-libaom --disable-debug --enable-fontconfig --enable-libass --enable-libbluray --enable-libfreetype --enable-libmfx --enable-libmysofa --enable-libopencore-amrnb --enable-libopencore-amrwb --enable-libopenjpeg --enable-libsnappy --enable-libsoxr --enable-libspeex --enable-libtheora --enable-libtwolame --enable-libvidstab --enable-libvo-amrwbenc --enable-libwavpack --enable-libwebp --enable-libxml2 --enable-libzimg --enable-libshine --enable-gpl --enable-avisynth --enable-libxvid --enable-libopenmpt --enable-version3 --enable-librav1e --enable-libsrt --enable-libgsm --enable-libvmaf --enable-chromaprint --enable-decklink --enable-frei0r --enable-libbs2b --enable-libcaca --enable-libcdio --enable-libfdk-aac --enable-libflite --enable-libfribidi --enable-libgme --enable-libilbc --enable-libsvthevc --enable-libsvtav1 --enable-libsvtvp9 --enable-libkvazaar --enable-libmodplug --enable-librtmp --enable-librubberband --enable-libtesseract --enable-libxavs --enable-libzmq --enable-libzvbi --enable-openal --enable-libcodec2 --enable-ladspa --enable-libglslang --enable-vulkan --enable-opencl --enable-opengl --enable-libnpp --enable-libopenh264 --enable-openssl --extra-cflags=-fopenmp --extra-libs=-lgomp --extra-cflags=-DLIBTWOLAME_STATIC --extra-libs=-lstdc++ --extra-cflags=-DCACA_STATIC --extra-cflags=-DMODPLUG_STATIC --extra-cflags=-DCHROMAPRINT_NODLL --extra-libs=-lstdc++ --extra-cflags=-DZMQ_STATIC --extra-libs=-lpsapi --extra-cflags=-DLIBXML_STATIC --extra-libs=-liconv --disable-w32threads --extra-cflags=-DKVZ_STATIC_LIB --enable-nonfree --extra-cflags='-IC:/PROGRA~1/NVIDIA~2/CUDA/v11.0/include' --extra-ldflags='-LC:/PROGRA~1/NVIDIA~2/CUDA/v11.0/lib/x64' --extra-cflags=-DAL_LIBTYPE_STATIC --extra-cflags='-IC:/bin/media-autobuild_suite-master/local64/include/AL'
  libavutil      56. 58.100 / 56. 58.100
  libavcodec     58.101.101 / 58.101.101
  libavformat    58. 51.101 / 58. 51.101
  libavdevice    58. 11.101 / 58. 11.101
  libavfilter     7. 87.100 /  7. 87.100
  libswscale      5.  8.100 /  5.  8.100
  libswresample   3.  8.100 /  3.  8.100
  libpostproc    55.  8.100 / 55.  8.100
Input #0, avi, from '200808.avi':
  Metadata:
    encoder         : Lavf58.49.100
    Stream #0:0: Video: rawvideo (I420 / 0x30323449), yuv420p, 1920x1080, 745750 kb/s, SAR 1:1 DAR 16:9, 29.97 fps, 29.97 tbr, 29.97 tbn, 29.97 tbc
  Duration: 00:02:01.05, start: 0.000000, bitrate: 745549 kb/s
Stream mapping:
  Stream #0:0 -> #0:0 (rawvideo (native) -> h264 (h264_nvenc))
Press [q] to stop, [?] for help
Output #0, mp4, to 'output.mp4':
  Metadata:
    encoder         : Lavf58.51.101
      encoder         : Lavc58.101.101 h264_nvenc
    Side data:
    Stream #0:0: Video: h264 (h264_nvenc) (High) (avc1 / 0x31637661), yuv420p(tv, bt709), 1920x1080 [SAR 1:1 DAR 16:9], q=-1--1, 2000 kb/s, 29.97 fps, 30k tbn, 29.97 tbc
      cpb: bitrate max/min/avg: 0/0/2000000 buffer size: 4000000 vbv_delay: N/A
    Metadata:
[mp4 @ 000002ad22496c80] Starting second pass: moving the moov atom to the beginning of the file
frame= 3628 fps= 84 q=23.0 Lsize=  135758kB time=00:02:00.95 bitrate=9194.6kbits/s dup=1 drop=0 speed=2.79x    
video:135712kB audio:0kB subtitle:0kB other streams:0kB global headers:0kB muxing overhead: 0.033208%
DEBUG ExitCode: 0
DEBUG Invoke-Process
File: ffmpeg
Arg: -y -nostats -i output.mp4 -i 200808.avi -filter_complex libvmaf=vmaf_v0.6.1.pkl -an -f null -
ArgList:

ffmpeg version N-98966-g7a89f382a3-g0271098e6c+4 Copyright (c) 2000-2020 the FFmpeg developers
  built with gcc 10.2.0 (Rev1, Built by MSYS2 project)
  configuration:  --cc='ccache gcc' --cxx='ccache g++' --disable-autodetect --enable-amf --enable-bzlib --enable-cuda --enable-cuvid --enable-d3d11va --enable-dxva2 --enable-iconv --enable-lzma --enable-nvenc --enable-zlib --enable-sdl2 --enable-ffnvcodec --enable-nvdec --enable-cuda-llvm --enable-libmp3lame --enable-libopus --enable-libvorbis --enable-libvpx --enable-libx264 --enable-libx265 --enable-libdav1d --enable-libaom --disable-debug --enable-fontconfig --enable-libass --enable-libbluray --enable-libfreetype --enable-libmfx --enable-libmysofa --enable-libopencore-amrnb --enable-libopencore-amrwb --enable-libopenjpeg --enable-libsnappy --enable-libsoxr --enable-libspeex --enable-libtheora --enable-libtwolame --enable-libvidstab --enable-libvo-amrwbenc --enable-libwavpack --enable-libwebp --enable-libxml2 --enable-libzimg --enable-libshine --enable-gpl --enable-avisynth --enable-libxvid --enable-libopenmpt --enable-version3 --enable-librav1e --enable-libsrt --enable-libgsm --enable-libvmaf --enable-chromaprint --enable-decklink --enable-frei0r --enable-libbs2b --enable-libcaca --enable-libcdio --enable-libfdk-aac --enable-libflite --enable-libfribidi --enable-libgme --enable-libilbc --enable-libsvthevc --enable-libsvtav1 --enable-libsvtvp9 --enable-libkvazaar --enable-libmodplug --enable-librtmp --enable-librubberband --enable-libtesseract --enable-libxavs --enable-libzmq --enable-libzvbi --enable-openal --enable-libcodec2 --enable-ladspa --enable-libglslang --enable-vulkan --enable-opencl --enable-opengl --enable-libnpp --enable-libopenh264 --enable-openssl --extra-cflags=-fopenmp --extra-libs=-lgomp --extra-cflags=-DLIBTWOLAME_STATIC --extra-libs=-lstdc++ --extra-cflags=-DCACA_STATIC --extra-cflags=-DMODPLUG_STATIC --extra-cflags=-DCHROMAPRINT_NODLL --extra-libs=-lstdc++ --extra-cflags=-DZMQ_STATIC --extra-libs=-lpsapi --extra-cflags=-DLIBXML_STATIC --extra-libs=-liconv --disable-w32threads --extra-cflags=-DKVZ_STATIC_LIB --enable-nonfree --extra-cflags='-IC:/PROGRA~1/NVIDIA~2/CUDA/v11.0/include' --extra-ldflags='-LC:/PROGRA~1/NVIDIA~2/CUDA/v11.0/lib/x64' --extra-cflags=-DAL_LIBTYPE_STATIC --extra-cflags='-IC:/bin/media-autobuild_suite-master/local64/include/AL'
  libavutil      56. 58.100 / 56. 58.100
  libavcodec     58.101.101 / 58.101.101
  libavformat    58. 51.101 / 58. 51.101
  libavfilter     7. 87.100 /  7. 87.100
  libswscale      5.  8.100 /  5.  8.100
  libswresample   3.  8.100 /  3.  8.100
  libpostproc    55.  8.100 / 55.  8.100
  libavdevice    58. 11.101 / 58. 11.101
Input #0, mov,mp4,m4a,3gp,3g2,mj2, from 'output.mp4':
  Metadata:
    minor_version   : 512
    major_brand     : isom
    compatible_brands: isomiso2avc1mp41
    encoder         : Lavf58.51.101
  Duration: 00:02:01.06, start: 0.000000, bitrate: 9186 kb/s
    Stream #0:0(und): Video: h264 (High) (avc1 / 0x31637661), yuv420p(tv, bt709), 1920x1080 [SAR 1:1 DAR 16:9], 9183 kb/s, 29.97 fps, 29.97 tbr, 30k tbn, 59.94 tbc (default)
    Metadata:
      handler_name    : VideoHandler
Input #1, avi, from '200808.avi':
    encoder         : Lavf58.49.100
  Metadata:
  Duration: 00:02:01.05, start: 0.000000, bitrate: 745549 kb/s
    Stream #1:0: Video: rawvideo (I420 / 0x30323449), yuv420p, 1920x1080, 745750 kb/s, SAR 1:1 DAR 16:9, 29.97 fps, 29.97 tbr, 29.97 tbn, 29.97 tbc
Stream mapping:
  Stream #0:0 (h264) -> libvmaf:main
  Stream #1:0 (rawvideo) -> libvmaf:reference
  libvmaf -> Stream #0:0 (wrapped_avframe)
Press [q] to stop, [?] for help
Output #0, null, to 'pipe:':
  Metadata:
    major_brand     : isom
    minor_version   : 512
    compatible_brands: isomiso2avc1mp41
    encoder         : Lavf58.51.101
    Metadata:
    Stream #0:0: Video: wrapped_avframe, yuv420p, 1920x1080 [SAR 1:1 DAR 16:9], q=2-31, 200 kb/s, 29.97 fps, 29.97 tbn, 29.97 tbc (default)
      encoder         : Lavc58.101.101 wrapped_avframe
frame= 3628 fps= 26 q=-0.0 Lsize=N/A time=00:02:01.05 bitrate=N/A speed=0.883x    
video:1899kB audio:0kB subtitle:0kB other streams:0kB global headers:0kB muxing overhead: unknown
[libvmaf @ 0000029c04a0e180] VMAF score: 95.935719
DEBUG ExitCode: 0
132.58MB
DEBUG Invoke-Process
File: ffmpeg
Arg: -y -nostats -analyzeduration 30M -probesize 100M -fflags +discardcorrupt -i 200808.avi -an -c:v h264_nvenc -preset:v p7 -profile:v high -rc:v constqp -rc-lookahead 1 -spatial-aq 0 -temporal-aq 1 -init_qpI 22 -init_qpP 23 -init_qpB 26 -weighted_pred 0 -coder cabac -b_ref_mode 2 -dpb_size 4 -multipass 0 -g 200 -bf 2 -pix_fmt yuv420p -color_range tv -color_primaries bt709 -color_trc bt709 -colorspace bt709 -movflags +faststart output.mp4
ArgList:

ffmpeg version N-98966-g7a89f382a3-g0271098e6c+4 Copyright (c) 2000-2020 the FFmpeg developers
  built with gcc 10.2.0 (Rev1, Built by MSYS2 project)
  configuration:  --cc='ccache gcc' --cxx='ccache g++' --disable-autodetect --enable-amf --enable-bzlib --enable-cuda --enable-cuvid --enable-d3d11va --enable-dxva2 --enable-iconv --enable-lzma --enable-nvenc --enable-zlib --enable-sdl2 --enable-ffnvcodec --enable-nvdec --enable-cuda-llvm --enable-libmp3lame --enable-libopus --enable-libvorbis --enable-libvpx --enable-libx264 --enable-libx265 --enable-libdav1d --enable-libaom --disable-debug --enable-fontconfig --enable-libass --enable-libbluray --enable-libfreetype --enable-libmfx --enable-libmysofa --enable-libopencore-amrnb --enable-libopencore-amrwb --enable-libopenjpeg --enable-libsnappy --enable-libsoxr --enable-libspeex --enable-libtheora --enable-libtwolame --enable-libvidstab --enable-libvo-amrwbenc --enable-libwavpack --enable-libwebp --enable-libxml2 --enable-libzimg --enable-libshine --enable-gpl --enable-avisynth --enable-libxvid --enable-libopenmpt --enable-version3 --enable-librav1e --enable-libsrt --enable-libgsm --enable-libvmaf --enable-chromaprint --enable-decklink --enable-frei0r --enable-libbs2b --enable-libcaca --enable-libcdio --enable-libfdk-aac --enable-libflite --enable-libfribidi --enable-libgme --enable-libilbc --enable-libsvthevc --enable-libsvtav1 --enable-libsvtvp9 --enable-libkvazaar --enable-libmodplug --enable-librtmp --enable-librubberband --enable-libtesseract --enable-libxavs --enable-libzmq --enable-libzvbi --enable-openal --enable-libcodec2 --enable-ladspa --enable-libglslang --enable-vulkan --enable-opencl --enable-opengl --enable-libnpp --enable-libopenh264 --enable-openssl --extra-cflags=-fopenmp --extra-libs=-lgomp --extra-cflags=-DLIBTWOLAME_STATIC --extra-libs=-lstdc++ --extra-cflags=-DCACA_STATIC --extra-cflags=-DMODPLUG_STATIC --extra-cflags=-DCHROMAPRINT_NODLL --extra-libs=-lstdc++ --extra-cflags=-DZMQ_STATIC --extra-libs=-lpsapi --extra-cflags=-DLIBXML_STATIC --extra-libs=-liconv --disable-w32threads --extra-cflags=-DKVZ_STATIC_LIB --enable-nonfree --extra-cflags='-IC:/PROGRA~1/NVIDIA~2/CUDA/v11.0/include' --extra-ldflags='-LC:/PROGRA~1/NVIDIA~2/CUDA/v11.0/lib/x64' --extra-cflags=-DAL_LIBTYPE_STATIC --extra-cflags='-IC:/bin/media-autobuild_suite-master/local64/include/AL'
  libavutil      56. 58.100 / 56. 58.100
  libavcodec     58.101.101 / 58.101.101
  libavformat    58. 51.101 / 58. 51.101
  libavdevice    58. 11.101 / 58. 11.101
  libavfilter     7. 87.100 /  7. 87.100
  libswscale      5.  8.100 /  5.  8.100
  libswresample   3.  8.100 /  3.  8.100
  libpostproc    55.  8.100 / 55.  8.100
Input #0, avi, from '200808.avi':
    encoder         : Lavf58.49.100
  Duration: 00:02:01.05, start: 0.000000, bitrate: 745549 kb/s
    Stream #0:0: Video: rawvideo (I420 / 0x30323449), yuv420p, 1920x1080, 745750 kb/s, SAR 1:1 DAR 16:9, 29.97 fps, 29.97 tbr, 29.97 tbn, 29.97 tbc
  Metadata:
Stream mapping:
Press [q] to stop, [?] for help
  Stream #0:0 -> #0:0 (rawvideo (native) -> h264 (h264_nvenc))
Output #0, mp4, to 'output.mp4':
  Metadata:
      encoder         : Lavc58.101.101 h264_nvenc
    Side data:
    Stream #0:0: Video: h264 (h264_nvenc) (High) (avc1 / 0x31637661), yuv420p(tv, bt709), 1920x1080 [SAR 1:1 DAR 16:9], q=-1--1, 2000 kb/s, 29.97 fps, 30k tbn, 29.97 tbc
      cpb: bitrate max/min/avg: 0/0/2000000 buffer size: 4000000 vbv_delay: N/A
    encoder         : Lavf58.51.101
    Metadata:
[mp4 @ 000001a730856c80] Starting second pass: moving the moov atom to the beginning of the file
frame= 3628 fps= 83 q=22.0 Lsize=  135417kB time=00:02:00.95 bitrate=9171.5kbits/s dup=1 drop=0 speed=2.78x    
video:135372kB audio:0kB subtitle:0kB other streams:0kB global headers:0kB muxing overhead: 0.033289%
DEBUG ExitCode: 0
DEBUG Invoke-Process
File: ffmpeg
Arg: -y -nostats -i output.mp4 -i 200808.avi -filter_complex libvmaf=vmaf_v0.6.1.pkl -an -f null -
ArgList:

ffmpeg version N-98966-g7a89f382a3-g0271098e6c+4 Copyright (c) 2000-2020 the FFmpeg developers
  built with gcc 10.2.0 (Rev1, Built by MSYS2 project)
  configuration:  --cc='ccache gcc' --cxx='ccache g++' --disable-autodetect --enable-amf --enable-bzlib --enable-cuda --enable-cuvid --enable-d3d11va --enable-dxva2 --enable-iconv --enable-lzma --enable-nvenc --enable-zlib --enable-sdl2 --enable-ffnvcodec --enable-nvdec --enable-cuda-llvm --enable-libmp3lame --enable-libopus --enable-libvorbis --enable-libvpx --enable-libx264 --enable-libx265 --enable-libdav1d --enable-libaom --disable-debug --enable-fontconfig --enable-libass --enable-libbluray --enable-libfreetype --enable-libmfx --enable-libmysofa --enable-libopencore-amrnb --enable-libopencore-amrwb --enable-libopenjpeg --enable-libsnappy --enable-libsoxr --enable-libspeex --enable-libtheora --enable-libtwolame --enable-libvidstab --enable-libvo-amrwbenc --enable-libwavpack --enable-libwebp --enable-libxml2 --enable-libzimg --enable-libshine --enable-gpl --enable-avisynth --enable-libxvid --enable-libopenmpt --enable-version3 --enable-librav1e --enable-libsrt --enable-libgsm --enable-libvmaf --enable-chromaprint --enable-decklink --enable-frei0r --enable-libbs2b --enable-libcaca --enable-libcdio --enable-libfdk-aac --enable-libflite --enable-libfribidi --enable-libgme --enable-libilbc --enable-libsvthevc --enable-libsvtav1 --enable-libsvtvp9 --enable-libkvazaar --enable-libmodplug --enable-librtmp --enable-librubberband --enable-libtesseract --enable-libxavs --enable-libzmq --enable-libzvbi --enable-openal --enable-libcodec2 --enable-ladspa --enable-libglslang --enable-vulkan --enable-opencl --enable-opengl --enable-libnpp --enable-libopenh264 --enable-openssl --extra-cflags=-fopenmp --extra-libs=-lgomp --extra-cflags=-DLIBTWOLAME_STATIC --extra-libs=-lstdc++ --extra-cflags=-DCACA_STATIC --extra-cflags=-DMODPLUG_STATIC --extra-cflags=-DCHROMAPRINT_NODLL --extra-libs=-lstdc++ --extra-cflags=-DZMQ_STATIC --extra-libs=-lpsapi --extra-cflags=-DLIBXML_STATIC --extra-libs=-liconv --disable-w32threads --extra-cflags=-DKVZ_STATIC_LIB --enable-nonfree --extra-cflags='-IC:/PROGRA~1/NVIDIA~2/CUDA/v11.0/include' --extra-ldflags='-LC:/PROGRA~1/NVIDIA~2/CUDA/v11.0/lib/x64' --extra-cflags=-DAL_LIBTYPE_STATIC --extra-cflags='-IC:/bin/media-autobuild_suite-master/local64/include/AL'
  libavcodec     58.101.101 / 58.101.101
  libavformat    58. 51.101 / 58. 51.101
  libavdevice    58. 11.101 / 58. 11.101
  libavutil      56. 58.100 / 56. 58.100
  libavfilter     7. 87.100 /  7. 87.100
  libswscale      5.  8.100 /  5.  8.100
  libpostproc    55.  8.100 / 55.  8.100
  libswresample   3.  8.100 /  3.  8.100
Input #0, mov,mp4,m4a,3gp,3g2,mj2, from 'output.mp4':
  Metadata:
    major_brand     : isom
    encoder         : Lavf58.51.101
  Duration: 00:02:01.06, start: 0.000000, bitrate: 9163 kb/s
    compatible_brands: isomiso2avc1mp41
    minor_version   : 512
    Stream #0:0(und): Video: h264 (High) (avc1 / 0x31637661), yuv420p(tv, bt709), 1920x1080 [SAR 1:1 DAR 16:9], 9160 kb/s, 29.97 fps, 29.97 tbr, 30k tbn, 59.94 tbc (default)
    Metadata:
      handler_name    : VideoHandler
Input #1, avi, from '200808.avi':
  Metadata:
    encoder         : Lavf58.49.100
  Duration: 00:02:01.05, start: 0.000000, bitrate: 745549 kb/s
    Stream #1:0: Video: rawvideo (I420 / 0x30323449), yuv420p, 1920x1080, 745750 kb/s, SAR 1:1 DAR 16:9, 29.97 fps, 29.97 tbr, 29.97 tbn, 29.97 tbc
Stream mapping:
  Stream #0:0 (h264) -> libvmaf:main
  Stream #1:0 (rawvideo) -> libvmaf:reference
  libvmaf -> Stream #0:0 (wrapped_avframe)
Press [q] to stop, [?] for help
Output #0, null, to 'pipe:':
  Metadata:
    major_brand     : isom
    encoder         : Lavf58.51.101
    Stream #0:0: Video: wrapped_avframe, yuv420p, 1920x1080 [SAR 1:1 DAR 16:9], q=2-31, 200 kb/s, 29.97 fps, 29.97 tbn, 29.97 tbc (default)
    compatible_brands: isomiso2avc1mp41
    Metadata:
    minor_version   : 512
      encoder         : Lavc58.101.101 wrapped_avframe
frame= 3628 fps= 26 q=-0.0 Lsize=N/A time=00:02:01.05 bitrate=N/A speed=0.866x    
video:1899kB audio:0kB subtitle:0kB other streams:0kB global headers:0kB muxing overhead: unknown
[libvmaf @ 000001b212eb9e80] VMAF score: 95.936172
DEBUG ExitCode: 0
132.24MB
DEBUG Invoke-Process
File: ffmpeg
Arg: -y -nostats -analyzeduration 30M -probesize 100M -fflags +discardcorrupt -i 200808.avi -an -c:v h264_nvenc -preset:v p7 -profile:v high -rc:v constqp -rc-lookahead 1 -spatial-aq 0 -temporal-aq 1 -init_qpI 22 -init_qpP 23 -init_qpB 26 -weighted_pred 0 -coder cabac -b_ref_mode 2 -dpb_size 4 -multipass 0 -g 300 -bf 2 -pix_fmt yuv420p -color_range tv -color_primaries bt709 -color_trc bt709 -colorspace bt709 -movflags +faststart output.mp4
ArgList:

ffmpeg version N-98966-g7a89f382a3-g0271098e6c+4 Copyright (c) 2000-2020 the FFmpeg developers
  built with gcc 10.2.0 (Rev1, Built by MSYS2 project)
  configuration:  --cc='ccache gcc' --cxx='ccache g++' --disable-autodetect --enable-amf --enable-bzlib --enable-cuda --enable-cuvid --enable-d3d11va --enable-dxva2 --enable-iconv --enable-lzma --enable-nvenc --enable-zlib --enable-sdl2 --enable-ffnvcodec --enable-nvdec --enable-cuda-llvm --enable-libmp3lame --enable-libopus --enable-libvorbis --enable-libvpx --enable-libx264 --enable-libx265 --enable-libdav1d --enable-libaom --disable-debug --enable-fontconfig --enable-libass --enable-libbluray --enable-libfreetype --enable-libmfx --enable-libmysofa --enable-libopencore-amrnb --enable-libopencore-amrwb --enable-libopenjpeg --enable-libsnappy --enable-libsoxr --enable-libspeex --enable-libtheora --enable-libtwolame --enable-libvidstab --enable-libvo-amrwbenc --enable-libwavpack --enable-libwebp --enable-libxml2 --enable-libzimg --enable-libshine --enable-gpl --enable-avisynth --enable-libxvid --enable-libopenmpt --enable-version3 --enable-librav1e --enable-libsrt --enable-libgsm --enable-libvmaf --enable-chromaprint --enable-decklink --enable-frei0r --enable-libbs2b --enable-libcaca --enable-libcdio --enable-libfdk-aac --enable-libflite --enable-libfribidi --enable-libgme --enable-libilbc --enable-libsvthevc --enable-libsvtav1 --enable-libsvtvp9 --enable-libkvazaar --enable-libmodplug --enable-librtmp --enable-librubberband --enable-libtesseract --enable-libxavs --enable-libzmq --enable-libzvbi --enable-openal --enable-libcodec2 --enable-ladspa --enable-libglslang --enable-vulkan --enable-opencl --enable-opengl --enable-libnpp --enable-libopenh264 --enable-openssl --extra-cflags=-fopenmp --extra-libs=-lgomp --extra-cflags=-DLIBTWOLAME_STATIC --extra-libs=-lstdc++ --extra-cflags=-DCACA_STATIC --extra-cflags=-DMODPLUG_STATIC --extra-cflags=-DCHROMAPRINT_NODLL --extra-libs=-lstdc++ --extra-cflags=-DZMQ_STATIC --extra-libs=-lpsapi --extra-cflags=-DLIBXML_STATIC --extra-libs=-liconv --disable-w32threads --extra-cflags=-DKVZ_STATIC_LIB --enable-nonfree --extra-cflags='-IC:/PROGRA~1/NVIDIA~2/CUDA/v11.0/include' --extra-ldflags='-LC:/PROGRA~1/NVIDIA~2/CUDA/v11.0/lib/x64' --extra-cflags=-DAL_LIBTYPE_STATIC --extra-cflags='-IC:/bin/media-autobuild_suite-master/local64/include/AL'
  libavutil      56. 58.100 / 56. 58.100
  libavcodec     58.101.101 / 58.101.101
  libavformat    58. 51.101 / 58. 51.101
  libavdevice    58. 11.101 / 58. 11.101
  libavfilter     7. 87.100 /  7. 87.100
  libswscale      5.  8.100 /  5.  8.100
  libswresample   3.  8.100 /  3.  8.100
  libpostproc    55.  8.100 / 55.  8.100
Input #0, avi, from '200808.avi':
  Metadata:
  Duration: 00:02:01.05, start: 0.000000, bitrate: 745549 kb/s
    Stream #0:0: Video: rawvideo (I420 / 0x30323449), yuv420p, 1920x1080, 745750 kb/s, SAR 1:1 DAR 16:9, 29.97 fps, 29.97 tbr, 29.97 tbn, 29.97 tbc
    encoder         : Lavf58.49.100
Stream mapping:
  Stream #0:0 -> #0:0 (rawvideo (native) -> h264 (h264_nvenc))
Press [q] to stop, [?] for help
Output #0, mp4, to 'output.mp4':
  Metadata:
    encoder         : Lavf58.51.101
      encoder         : Lavc58.101.101 h264_nvenc
    Metadata:
    Side data:
      cpb: bitrate max/min/avg: 0/0/2000000 buffer size: 4000000 vbv_delay: N/A
    Stream #0:0: Video: h264 (h264_nvenc) (High) (avc1 / 0x31637661), yuv420p(tv, bt709), 1920x1080 [SAR 1:1 DAR 16:9], q=-1--1, 2000 kb/s, 29.97 fps, 30k tbn, 29.97 tbc
[mp4 @ 0000020ab7be6c80] Starting second pass: moving the moov atom to the beginning of the file
frame= 3628 fps= 83 q=22.0 Lsize=  135417kB time=00:02:00.95 bitrate=9171.5kbits/s dup=1 drop=0 speed=2.77x    
video:135372kB audio:0kB subtitle:0kB other streams:0kB global headers:0kB muxing overhead: 0.033289%
DEBUG ExitCode: 0
DEBUG Invoke-Process
File: ffmpeg
Arg: -y -nostats -i output.mp4 -i 200808.avi -filter_complex libvmaf=vmaf_v0.6.1.pkl -an -f null -
ArgList:

ffmpeg version N-98966-g7a89f382a3-g0271098e6c+4 Copyright (c) 2000-2020 the FFmpeg developers
  built with gcc 10.2.0 (Rev1, Built by MSYS2 project)
  configuration:  --cc='ccache gcc' --cxx='ccache g++' --disable-autodetect --enable-amf --enable-bzlib --enable-cuda --enable-cuvid --enable-d3d11va --enable-dxva2 --enable-iconv --enable-lzma --enable-nvenc --enable-zlib --enable-sdl2 --enable-ffnvcodec --enable-nvdec --enable-cuda-llvm --enable-libmp3lame --enable-libopus --enable-libvorbis --enable-libvpx --enable-libx264 --enable-libx265 --enable-libdav1d --enable-libaom --disable-debug --enable-fontconfig --enable-libass --enable-libbluray --enable-libfreetype --enable-libmfx --enable-libmysofa --enable-libopencore-amrnb --enable-libopencore-amrwb --enable-libopenjpeg --enable-libsnappy --enable-libsoxr --enable-libspeex --enable-libtheora --enable-libtwolame --enable-libvidstab --enable-libvo-amrwbenc --enable-libwavpack --enable-libwebp --enable-libxml2 --enable-libzimg --enable-libshine --enable-gpl --enable-avisynth --enable-libxvid --enable-libopenmpt --enable-version3 --enable-librav1e --enable-libsrt --enable-libgsm --enable-libvmaf --enable-chromaprint --enable-decklink --enable-frei0r --enable-libbs2b --enable-libcaca --enable-libcdio --enable-libfdk-aac --enable-libflite --enable-libfribidi --enable-libgme --enable-libilbc --enable-libsvthevc --enable-libsvtav1 --enable-libsvtvp9 --enable-libkvazaar --enable-libmodplug --enable-librtmp --enable-librubberband --enable-libtesseract --enable-libxavs --enable-libzmq --enable-libzvbi --enable-openal --enable-libcodec2 --enable-ladspa --enable-libglslang --enable-vulkan --enable-opencl --enable-opengl --enable-libnpp --enable-libopenh264 --enable-openssl --extra-cflags=-fopenmp --extra-libs=-lgomp --extra-cflags=-DLIBTWOLAME_STATIC --extra-libs=-lstdc++ --extra-cflags=-DCACA_STATIC --extra-cflags=-DMODPLUG_STATIC --extra-cflags=-DCHROMAPRINT_NODLL --extra-libs=-lstdc++ --extra-cflags=-DZMQ_STATIC --extra-libs=-lpsapi --extra-cflags=-DLIBXML_STATIC --extra-libs=-liconv --disable-w32threads --extra-cflags=-DKVZ_STATIC_LIB --enable-nonfree --extra-cflags='-IC:/PROGRA~1/NVIDIA~2/CUDA/v11.0/include' --extra-ldflags='-LC:/PROGRA~1/NVIDIA~2/CUDA/v11.0/lib/x64' --extra-cflags=-DAL_LIBTYPE_STATIC --extra-cflags='-IC:/bin/media-autobuild_suite-master/local64/include/AL'
  libavcodec     58.101.101 / 58.101.101
  libavformat    58. 51.101 / 58. 51.101
  libavfilter     7. 87.100 /  7. 87.100
  libswscale      5.  8.100 /  5.  8.100
  libavdevice    58. 11.101 / 58. 11.101
  libswresample   3.  8.100 /  3.  8.100
  libpostproc    55.  8.100 / 55.  8.100
  libavutil      56. 58.100 / 56. 58.100
Input #0, mov,mp4,m4a,3gp,3g2,mj2, from 'output.mp4':
    major_brand     : isom
  Metadata:
    compatible_brands: isomiso2avc1mp41
    minor_version   : 512
  Duration: 00:02:01.06, start: 0.000000, bitrate: 9163 kb/s
    encoder         : Lavf58.51.101
    Stream #0:0(und): Video: h264 (High) (avc1 / 0x31637661), yuv420p(tv, bt709), 1920x1080 [SAR 1:1 DAR 16:9], 9160 kb/s, 29.97 fps, 29.97 tbr, 30k tbn, 59.94 tbc (default)
      handler_name    : VideoHandler
    Metadata:
Input #1, avi, from '200808.avi':
  Metadata:
    encoder         : Lavf58.49.100
  Duration: 00:02:01.05, start: 0.000000, bitrate: 745549 kb/s
    Stream #1:0: Video: rawvideo (I420 / 0x30323449), yuv420p, 1920x1080, 745750 kb/s, SAR 1:1 DAR 16:9, 29.97 fps, 29.97 tbr, 29.97 tbn, 29.97 tbc
Stream mapping:
  Stream #0:0 (h264) -> libvmaf:main
  Stream #1:0 (rawvideo) -> libvmaf:reference
  libvmaf -> Stream #0:0 (wrapped_avframe)
Press [q] to stop, [?] for help
Output #0, null, to 'pipe:':
  Metadata:
    minor_version   : 512
    compatible_brands: isomiso2avc1mp41
    major_brand     : isom
    Stream #0:0: Video: wrapped_avframe, yuv420p, 1920x1080 [SAR 1:1 DAR 16:9], q=2-31, 200 kb/s, 29.97 fps, 29.97 tbn, 29.97 tbc (default)
    Metadata:
    encoder         : Lavf58.51.101
      encoder         : Lavc58.101.101 wrapped_avframe
frame= 3628 fps= 26 q=-0.0 Lsize=N/A time=00:02:01.05 bitrate=N/A speed=0.882x    
video:1899kB audio:0kB subtitle:0kB other streams:0kB global headers:0kB muxing overhead: unknown
[libvmaf @ 000001f50d7eea40] VMAF score: 95.936172
DEBUG ExitCode: 0
132.24MB
DEBUG Invoke-Process
File: ffmpeg
Arg: -y -nostats -analyzeduration 30M -probesize 100M -fflags +discardcorrupt -i 200808.avi -an -c:v h264_nvenc -preset:v p7 -profile:v high -rc:v constqp -rc-lookahead 1 -spatial-aq 0 -temporal-aq 1 -init_qpI 22 -init_qpP 23 -init_qpB 26 -weighted_pred 0 -coder cabac -b_ref_mode 2 -dpb_size 4 -multipass 0 -g 400 -bf 2 -pix_fmt yuv420p -color_range tv -color_primaries bt709 -color_trc bt709 -colorspace bt709 -movflags +faststart output.mp4
ArgList:

ffmpeg version N-98966-g7a89f382a3-g0271098e6c+4 Copyright (c) 2000-2020 the FFmpeg developers
  built with gcc 10.2.0 (Rev1, Built by MSYS2 project)
  libavutil      56. 58.100 / 56. 58.100
  configuration:  --cc='ccache gcc' --cxx='ccache g++' --disable-autodetect --enable-amf --enable-bzlib --enable-cuda --enable-cuvid --enable-d3d11va --enable-dxva2 --enable-iconv --enable-lzma --enable-nvenc --enable-zlib --enable-sdl2 --enable-ffnvcodec --enable-nvdec --enable-cuda-llvm --enable-libmp3lame --enable-libopus --enable-libvorbis --enable-libvpx --enable-libx264 --enable-libx265 --enable-libdav1d --enable-libaom --disable-debug --enable-fontconfig --enable-libass --enable-libbluray --enable-libfreetype --enable-libmfx --enable-libmysofa --enable-libopencore-amrnb --enable-libopencore-amrwb --enable-libopenjpeg --enable-libsnappy --enable-libsoxr --enable-libspeex --enable-libtheora --enable-libtwolame --enable-libvidstab --enable-libvo-amrwbenc --enable-libwavpack --enable-libwebp --enable-libxml2 --enable-libzimg --enable-libshine --enable-gpl --enable-avisynth --enable-libxvid --enable-libopenmpt --enable-version3 --enable-librav1e --enable-libsrt --enable-libgsm --enable-libvmaf --enable-chromaprint --enable-decklink --enable-frei0r --enable-libbs2b --enable-libcaca --enable-libcdio --enable-libfdk-aac --enable-libflite --enable-libfribidi --enable-libgme --enable-libilbc --enable-libsvthevc --enable-libsvtav1 --enable-libsvtvp9 --enable-libkvazaar --enable-libmodplug --enable-librtmp --enable-librubberband --enable-libtesseract --enable-libxavs --enable-libzmq --enable-libzvbi --enable-openal --enable-libcodec2 --enable-ladspa --enable-libglslang --enable-vulkan --enable-opencl --enable-opengl --enable-libnpp --enable-libopenh264 --enable-openssl --extra-cflags=-fopenmp --extra-libs=-lgomp --extra-cflags=-DLIBTWOLAME_STATIC --extra-libs=-lstdc++ --extra-cflags=-DCACA_STATIC --extra-cflags=-DMODPLUG_STATIC --extra-cflags=-DCHROMAPRINT_NODLL --extra-libs=-lstdc++ --extra-cflags=-DZMQ_STATIC --extra-libs=-lpsapi --extra-cflags=-DLIBXML_STATIC --extra-libs=-liconv --disable-w32threads --extra-cflags=-DKVZ_STATIC_LIB --enable-nonfree --extra-cflags='-IC:/PROGRA~1/NVIDIA~2/CUDA/v11.0/include' --extra-ldflags='-LC:/PROGRA~1/NVIDIA~2/CUDA/v11.0/lib/x64' --extra-cflags=-DAL_LIBTYPE_STATIC --extra-cflags='-IC:/bin/media-autobuild_suite-master/local64/include/AL'
  libavformat    58. 51.101 / 58. 51.101
  libavdevice    58. 11.101 / 58. 11.101
  libavfilter     7. 87.100 /  7. 87.100
  libswscale      5.  8.100 /  5.  8.100
  libswresample   3.  8.100 /  3.  8.100
  libpostproc    55.  8.100 / 55.  8.100
  libavcodec     58.101.101 / 58.101.101
Input #0, avi, from '200808.avi':
    encoder         : Lavf58.49.100
  Metadata:
    Stream #0:0: Video: rawvideo (I420 / 0x30323449), yuv420p, 1920x1080, 745750 kb/s, SAR 1:1 DAR 16:9, 29.97 fps, 29.97 tbr, 29.97 tbn, 29.97 tbc
  Duration: 00:02:01.05, start: 0.000000, bitrate: 745549 kb/s
Stream mapping:
  Stream #0:0 -> #0:0 (rawvideo (native) -> h264 (h264_nvenc))
Press [q] to stop, [?] for help
Output #0, mp4, to 'output.mp4':
  Metadata:
    encoder         : Lavf58.51.101
    Stream #0:0: Video: h264 (h264_nvenc) (High) (avc1 / 0x31637661), yuv420p(tv, bt709), 1920x1080 [SAR 1:1 DAR 16:9], q=-1--1, 2000 kb/s, 29.97 fps, 30k tbn, 29.97 tbc
      encoder         : Lavc58.101.101 h264_nvenc
      cpb: bitrate max/min/avg: 0/0/2000000 buffer size: 4000000 vbv_delay: N/A
    Side data:
    Metadata:
[mp4 @ 0000029378cb6c80] Starting second pass: moving the moov atom to the beginning of the file
frame= 3628 fps= 83 q=22.0 Lsize=  135417kB time=00:02:00.95 bitrate=9171.5kbits/s dup=1 drop=0 speed=2.78x    
video:135372kB audio:0kB subtitle:0kB other streams:0kB global headers:0kB muxing overhead: 0.033289%
DEBUG ExitCode: 0
DEBUG Invoke-Process
File: ffmpeg
Arg: -y -nostats -i output.mp4 -i 200808.avi -filter_complex libvmaf=vmaf_v0.6.1.pkl -an -f null -
ArgList:

ffmpeg version N-98966-g7a89f382a3-g0271098e6c+4 Copyright (c) 2000-2020 the FFmpeg developers
  built with gcc 10.2.0 (Rev1, Built by MSYS2 project)
  configuration:  --cc='ccache gcc' --cxx='ccache g++' --disable-autodetect --enable-amf --enable-bzlib --enable-cuda --enable-cuvid --enable-d3d11va --enable-dxva2 --enable-iconv --enable-lzma --enable-nvenc --enable-zlib --enable-sdl2 --enable-ffnvcodec --enable-nvdec --enable-cuda-llvm --enable-libmp3lame --enable-libopus --enable-libvorbis --enable-libvpx --enable-libx264 --enable-libx265 --enable-libdav1d --enable-libaom --disable-debug --enable-fontconfig --enable-libass --enable-libbluray --enable-libfreetype --enable-libmfx --enable-libmysofa --enable-libopencore-amrnb --enable-libopencore-amrwb --enable-libopenjpeg --enable-libsnappy --enable-libsoxr --enable-libspeex --enable-libtheora --enable-libtwolame --enable-libvidstab --enable-libvo-amrwbenc --enable-libwavpack --enable-libwebp --enable-libxml2 --enable-libzimg --enable-libshine --enable-gpl --enable-avisynth --enable-libxvid --enable-libopenmpt --enable-version3 --enable-librav1e --enable-libsrt --enable-libgsm --enable-libvmaf --enable-chromaprint --enable-decklink --enable-frei0r --enable-libbs2b --enable-libcaca --enable-libcdio --enable-libfdk-aac --enable-libflite --enable-libfribidi --enable-libgme --enable-libilbc --enable-libsvthevc --enable-libsvtav1 --enable-libsvtvp9 --enable-libkvazaar --enable-libmodplug --enable-librtmp --enable-librubberband --enable-libtesseract --enable-libxavs --enable-libzmq --enable-libzvbi --enable-openal --enable-libcodec2 --enable-ladspa --enable-libglslang --enable-vulkan --enable-opencl --enable-opengl --enable-libnpp --enable-libopenh264 --enable-openssl --extra-cflags=-fopenmp --extra-libs=-lgomp --extra-cflags=-DLIBTWOLAME_STATIC --extra-libs=-lstdc++ --extra-cflags=-DCACA_STATIC --extra-cflags=-DMODPLUG_STATIC --extra-cflags=-DCHROMAPRINT_NODLL --extra-libs=-lstdc++ --extra-cflags=-DZMQ_STATIC --extra-libs=-lpsapi --extra-cflags=-DLIBXML_STATIC --extra-libs=-liconv --disable-w32threads --extra-cflags=-DKVZ_STATIC_LIB --enable-nonfree --extra-cflags='-IC:/PROGRA~1/NVIDIA~2/CUDA/v11.0/include' --extra-ldflags='-LC:/PROGRA~1/NVIDIA~2/CUDA/v11.0/lib/x64' --extra-cflags=-DAL_LIBTYPE_STATIC --extra-cflags='-IC:/bin/media-autobuild_suite-master/local64/include/AL'
  libavutil      56. 58.100 / 56. 58.100
  libavformat    58. 51.101 / 58. 51.101
  libavdevice    58. 11.101 / 58. 11.101
  libavfilter     7. 87.100 /  7. 87.100
  libswscale      5.  8.100 /  5.  8.100
  libswresample   3.  8.100 /  3.  8.100
  libpostproc    55.  8.100 / 55.  8.100
  libavcodec     58.101.101 / 58.101.101
Input #0, mov,mp4,m4a,3gp,3g2,mj2, from 'output.mp4':
  Metadata:
    major_brand     : isom
    minor_version   : 512
    compatible_brands: isomiso2avc1mp41
  Duration: 00:02:01.06, start: 0.000000, bitrate: 9163 kb/s
    Metadata:
      handler_name    : VideoHandler
    encoder         : Lavf58.51.101
    Stream #0:0(und): Video: h264 (High) (avc1 / 0x31637661), yuv420p(tv, bt709), 1920x1080 [SAR 1:1 DAR 16:9], 9160 kb/s, 29.97 fps, 29.97 tbr, 30k tbn, 59.94 tbc (default)
Input #1, avi, from '200808.avi':
  Metadata:
    encoder         : Lavf58.49.100
  Duration: 00:02:01.05, start: 0.000000, bitrate: 745549 kb/s
    Stream #1:0: Video: rawvideo (I420 / 0x30323449), yuv420p, 1920x1080, 745750 kb/s, SAR 1:1 DAR 16:9, 29.97 fps, 29.97 tbr, 29.97 tbn, 29.97 tbc
Stream mapping:
  Stream #0:0 (h264) -> libvmaf:main
  Stream #1:0 (rawvideo) -> libvmaf:reference
Press [q] to stop, [?] for help
  libvmaf -> Stream #0:0 (wrapped_avframe)
Output #0, null, to 'pipe:':
  Metadata:
    minor_version   : 512
    compatible_brands: isomiso2avc1mp41
    major_brand     : isom
    encoder         : Lavf58.51.101
    Stream #0:0: Video: wrapped_avframe, yuv420p, 1920x1080 [SAR 1:1 DAR 16:9], q=2-31, 200 kb/s, 29.97 fps, 29.97 tbn, 29.97 tbc (default)
    Metadata:
      encoder         : Lavc58.101.101 wrapped_avframe
frame= 3628 fps= 27 q=-0.0 Lsize=N/A time=00:02:01.05 bitrate=N/A speed=0.889x    
video:1899kB audio:0kB subtitle:0kB other streams:0kB global headers:0kB muxing overhead: unknown
[libvmaf @ 00000121b086e540] VMAF score: 95.936172
DEBUG ExitCode: 0
132.24MB
DEBUG Invoke-Process
File: ffmpeg
Arg: -y -nostats -analyzeduration 30M -probesize 100M -fflags +discardcorrupt -i 200808.avi -an -c:v h264_nvenc -preset:v p7 -profile:v high -rc:v constqp -rc-lookahead 1 -spatial-aq 0 -temporal-aq 1 -init_qpI 22 -init_qpP 23 -init_qpB 26 -weighted_pred 0 -coder cabac -b_ref_mode 2 -dpb_size 4 -multipass 0 -g 500 -bf 2 -pix_fmt yuv420p -color_range tv -color_primaries bt709 -color_trc bt709 -colorspace bt709 -movflags +faststart output.mp4
ArgList:

ffmpeg version N-98966-g7a89f382a3-g0271098e6c+4 Copyright (c) 2000-2020 the FFmpeg developers
  built with gcc 10.2.0 (Rev1, Built by MSYS2 project)
  configuration:  --cc='ccache gcc' --cxx='ccache g++' --disable-autodetect --enable-amf --enable-bzlib --enable-cuda --enable-cuvid --enable-d3d11va --enable-dxva2 --enable-iconv --enable-lzma --enable-nvenc --enable-zlib --enable-sdl2 --enable-ffnvcodec --enable-nvdec --enable-cuda-llvm --enable-libmp3lame --enable-libopus --enable-libvorbis --enable-libvpx --enable-libx264 --enable-libx265 --enable-libdav1d --enable-libaom --disable-debug --enable-fontconfig --enable-libass --enable-libbluray --enable-libfreetype --enable-libmfx --enable-libmysofa --enable-libopencore-amrnb --enable-libopencore-amrwb --enable-libopenjpeg --enable-libsnappy --enable-libsoxr --enable-libspeex --enable-libtheora --enable-libtwolame --enable-libvidstab --enable-libvo-amrwbenc --enable-libwavpack --enable-libwebp --enable-libxml2 --enable-libzimg --enable-libshine --enable-gpl --enable-avisynth --enable-libxvid --enable-libopenmpt --enable-version3 --enable-librav1e --enable-libsrt --enable-libgsm --enable-libvmaf --enable-chromaprint --enable-decklink --enable-frei0r --enable-libbs2b --enable-libcaca --enable-libcdio --enable-libfdk-aac --enable-libflite --enable-libfribidi --enable-libgme --enable-libilbc --enable-libsvthevc --enable-libsvtav1 --enable-libsvtvp9 --enable-libkvazaar --enable-libmodplug --enable-librtmp --enable-librubberband --enable-libtesseract --enable-libxavs --enable-libzmq --enable-libzvbi --enable-openal --enable-libcodec2 --enable-ladspa --enable-libglslang --enable-vulkan --enable-opencl --enable-opengl --enable-libnpp --enable-libopenh264 --enable-openssl --extra-cflags=-fopenmp --extra-libs=-lgomp --extra-cflags=-DLIBTWOLAME_STATIC --extra-libs=-lstdc++ --extra-cflags=-DCACA_STATIC --extra-cflags=-DMODPLUG_STATIC --extra-cflags=-DCHROMAPRINT_NODLL --extra-libs=-lstdc++ --extra-cflags=-DZMQ_STATIC --extra-libs=-lpsapi --extra-cflags=-DLIBXML_STATIC --extra-libs=-liconv --disable-w32threads --extra-cflags=-DKVZ_STATIC_LIB --enable-nonfree --extra-cflags='-IC:/PROGRA~1/NVIDIA~2/CUDA/v11.0/include' --extra-ldflags='-LC:/PROGRA~1/NVIDIA~2/CUDA/v11.0/lib/x64' --extra-cflags=-DAL_LIBTYPE_STATIC --extra-cflags='-IC:/bin/media-autobuild_suite-master/local64/include/AL'
  libavcodec     58.101.101 / 58.101.101
  libavformat    58. 51.101 / 58. 51.101
  libavdevice    58. 11.101 / 58. 11.101
  libavfilter     7. 87.100 /  7. 87.100
  libavutil      56. 58.100 / 56. 58.100
  libswscale      5.  8.100 /  5.  8.100
  libpostproc    55.  8.100 / 55.  8.100
  libswresample   3.  8.100 /  3.  8.100
Input #0, avi, from '200808.avi':
  Metadata:
  Duration: 00:02:01.05, start: 0.000000, bitrate: 745549 kb/s
    Stream #0:0: Video: rawvideo (I420 / 0x30323449), yuv420p, 1920x1080, 745750 kb/s, SAR 1:1 DAR 16:9, 29.97 fps, 29.97 tbr, 29.97 tbn, 29.97 tbc
    encoder         : Lavf58.49.100
Stream mapping:
  Stream #0:0 -> #0:0 (rawvideo (native) -> h264 (h264_nvenc))
Press [q] to stop, [?] for help
Output #0, mp4, to 'output.mp4':
  Metadata:
    Metadata:
    encoder         : Lavf58.51.101
      encoder         : Lavc58.101.101 h264_nvenc
      cpb: bitrate max/min/avg: 0/0/2000000 buffer size: 4000000 vbv_delay: N/A
    Stream #0:0: Video: h264 (h264_nvenc) (High) (avc1 / 0x31637661), yuv420p(tv, bt709), 1920x1080 [SAR 1:1 DAR 16:9], q=-1--1, 2000 kb/s, 29.97 fps, 30k tbn, 29.97 tbc
    Side data:
[mp4 @ 0000019c3c606c80] Starting second pass: moving the moov atom to the beginning of the file
frame= 3628 fps= 83 q=22.0 Lsize=  135417kB time=00:02:00.95 bitrate=9171.5kbits/s dup=1 drop=0 speed=2.78x    
video:135372kB audio:0kB subtitle:0kB other streams:0kB global headers:0kB muxing overhead: 0.033289%
DEBUG ExitCode: 0
DEBUG Invoke-Process
File: ffmpeg
Arg: -y -nostats -i output.mp4 -i 200808.avi -filter_complex libvmaf=vmaf_v0.6.1.pkl -an -f null -
ArgList:

ffmpeg version N-98966-g7a89f382a3-g0271098e6c+4 Copyright (c) 2000-2020 the FFmpeg developers
  built with gcc 10.2.0 (Rev1, Built by MSYS2 project)
  configuration:  --cc='ccache gcc' --cxx='ccache g++' --disable-autodetect --enable-amf --enable-bzlib --enable-cuda --enable-cuvid --enable-d3d11va --enable-dxva2 --enable-iconv --enable-lzma --enable-nvenc --enable-zlib --enable-sdl2 --enable-ffnvcodec --enable-nvdec --enable-cuda-llvm --enable-libmp3lame --enable-libopus --enable-libvorbis --enable-libvpx --enable-libx264 --enable-libx265 --enable-libdav1d --enable-libaom --disable-debug --enable-fontconfig --enable-libass --enable-libbluray --enable-libfreetype --enable-libmfx --enable-libmysofa --enable-libopencore-amrnb --enable-libopencore-amrwb --enable-libopenjpeg --enable-libsnappy --enable-libsoxr --enable-libspeex --enable-libtheora --enable-libtwolame --enable-libvidstab --enable-libvo-amrwbenc --enable-libwavpack --enable-libwebp --enable-libxml2 --enable-libzimg --enable-libshine --enable-gpl --enable-avisynth --enable-libxvid --enable-libopenmpt --enable-version3 --enable-librav1e --enable-libsrt --enable-libgsm --enable-libvmaf --enable-chromaprint --enable-decklink --enable-frei0r --enable-libbs2b --enable-libcaca --enable-libcdio --enable-libfdk-aac --enable-libflite --enable-libfribidi --enable-libgme --enable-libilbc --enable-libsvthevc --enable-libsvtav1 --enable-libsvtvp9 --enable-libkvazaar --enable-libmodplug --enable-librtmp --enable-librubberband --enable-libtesseract --enable-libxavs --enable-libzmq --enable-libzvbi --enable-openal --enable-libcodec2 --enable-ladspa --enable-libglslang --enable-vulkan --enable-opencl --enable-opengl --enable-libnpp --enable-libopenh264 --enable-openssl --extra-cflags=-fopenmp --extra-libs=-lgomp --extra-cflags=-DLIBTWOLAME_STATIC --extra-libs=-lstdc++ --extra-cflags=-DCACA_STATIC --extra-cflags=-DMODPLUG_STATIC --extra-cflags=-DCHROMAPRINT_NODLL --extra-libs=-lstdc++ --extra-cflags=-DZMQ_STATIC --extra-libs=-lpsapi --extra-cflags=-DLIBXML_STATIC --extra-libs=-liconv --disable-w32threads --extra-cflags=-DKVZ_STATIC_LIB --enable-nonfree --extra-cflags='-IC:/PROGRA~1/NVIDIA~2/CUDA/v11.0/include' --extra-ldflags='-LC:/PROGRA~1/NVIDIA~2/CUDA/v11.0/lib/x64' --extra-cflags=-DAL_LIBTYPE_STATIC --extra-cflags='-IC:/bin/media-autobuild_suite-master/local64/include/AL'
  libavcodec     58.101.101 / 58.101.101
  libavformat    58. 51.101 / 58. 51.101
  libavdevice    58. 11.101 / 58. 11.101
  libswscale      5.  8.100 /  5.  8.100
  libswresample   3.  8.100 /  3.  8.100
  libavfilter     7. 87.100 /  7. 87.100
  libpostproc    55.  8.100 / 55.  8.100
  libavutil      56. 58.100 / 56. 58.100
Input #0, mov,mp4,m4a,3gp,3g2,mj2, from 'output.mp4':
  Metadata:
    major_brand     : isom
    compatible_brands: isomiso2avc1mp41
    encoder         : Lavf58.51.101
    minor_version   : 512
  Duration: 00:02:01.06, start: 0.000000, bitrate: 9163 kb/s
    Stream #0:0(und): Video: h264 (High) (avc1 / 0x31637661), yuv420p(tv, bt709), 1920x1080 [SAR 1:1 DAR 16:9], 9160 kb/s, 29.97 fps, 29.97 tbr, 30k tbn, 59.94 tbc (default)
    Metadata:
      handler_name    : VideoHandler
Input #1, avi, from '200808.avi':
  Metadata:
    encoder         : Lavf58.49.100
    Stream #1:0: Video: rawvideo (I420 / 0x30323449), yuv420p, 1920x1080, 745750 kb/s, SAR 1:1 DAR 16:9, 29.97 fps, 29.97 tbr, 29.97 tbn, 29.97 tbc
  Duration: 00:02:01.05, start: 0.000000, bitrate: 745549 kb/s
Stream mapping:
  Stream #1:0 (rawvideo) -> libvmaf:reference
  Stream #0:0 (h264) -> libvmaf:main
  libvmaf -> Stream #0:0 (wrapped_avframe)
Press [q] to stop, [?] for help
Output #0, null, to 'pipe:':
    major_brand     : isom
    compatible_brands: isomiso2avc1mp41
  Metadata:
    encoder         : Lavf58.51.101
    Stream #0:0: Video: wrapped_avframe, yuv420p, 1920x1080 [SAR 1:1 DAR 16:9], q=2-31, 200 kb/s, 29.97 fps, 29.97 tbn, 29.97 tbc (default)
    Metadata:
      encoder         : Lavc58.101.101 wrapped_avframe
    minor_version   : 512
frame= 3628 fps= 27 q=-0.0 Lsize=N/A time=00:02:01.05 bitrate=N/A speed=0.89x    
video:1899kB audio:0kB subtitle:0kB other streams:0kB global headers:0kB muxing overhead: unknown
[libvmaf @ 000002a16c9ee000] VMAF score: 95.936172
DEBUG ExitCode: 0
132.24MB
DEBUG Invoke-Process
File: ffmpeg
Arg: -y -nostats -analyzeduration 30M -probesize 100M -fflags +discardcorrupt -i 200808.avi -an -c:v h264_nvenc -preset:v p7 -profile:v high -rc:v constqp -rc-lookahead 1 -spatial-aq 0 -temporal-aq 1 -init_qpI 22 -init_qpP 23 -init_qpB 26 -weighted_pred 0 -coder cabac -b_ref_mode 2 -dpb_size 4 -multipass 0 -g 600 -bf 2 -pix_fmt yuv420p -color_range tv -color_primaries bt709 -color_trc bt709 -colorspace bt709 -movflags +faststart output.mp4
ArgList:

ffmpeg version N-98966-g7a89f382a3-g0271098e6c+4 Copyright (c) 2000-2020 the FFmpeg developers
  built with gcc 10.2.0 (Rev1, Built by MSYS2 project)
  configuration:  --cc='ccache gcc' --cxx='ccache g++' --disable-autodetect --enable-amf --enable-bzlib --enable-cuda --enable-cuvid --enable-d3d11va --enable-dxva2 --enable-iconv --enable-lzma --enable-nvenc --enable-zlib --enable-sdl2 --enable-ffnvcodec --enable-nvdec --enable-cuda-llvm --enable-libmp3lame --enable-libopus --enable-libvorbis --enable-libvpx --enable-libx264 --enable-libx265 --enable-libdav1d --enable-libaom --disable-debug --enable-fontconfig --enable-libass --enable-libbluray --enable-libfreetype --enable-libmfx --enable-libmysofa --enable-libopencore-amrnb --enable-libopencore-amrwb --enable-libopenjpeg --enable-libsnappy --enable-libsoxr --enable-libspeex --enable-libtheora --enable-libtwolame --enable-libvidstab --enable-libvo-amrwbenc --enable-libwavpack --enable-libwebp --enable-libxml2 --enable-libzimg --enable-libshine --enable-gpl --enable-avisynth --enable-libxvid --enable-libopenmpt --enable-version3 --enable-librav1e --enable-libsrt --enable-libgsm --enable-libvmaf --enable-chromaprint --enable-decklink --enable-frei0r --enable-libbs2b --enable-libcaca --enable-libcdio --enable-libfdk-aac --enable-libflite --enable-libfribidi --enable-libgme --enable-libilbc --enable-libsvthevc --enable-libsvtav1 --enable-libsvtvp9 --enable-libkvazaar --enable-libmodplug --enable-librtmp --enable-librubberband --enable-libtesseract --enable-libxavs --enable-libzmq --enable-libzvbi --enable-openal --enable-libcodec2 --enable-ladspa --enable-libglslang --enable-vulkan --enable-opencl --enable-opengl --enable-libnpp --enable-libopenh264 --enable-openssl --extra-cflags=-fopenmp --extra-libs=-lgomp --extra-cflags=-DLIBTWOLAME_STATIC --extra-libs=-lstdc++ --extra-cflags=-DCACA_STATIC --extra-cflags=-DMODPLUG_STATIC --extra-cflags=-DCHROMAPRINT_NODLL --extra-libs=-lstdc++ --extra-cflags=-DZMQ_STATIC --extra-libs=-lpsapi --extra-cflags=-DLIBXML_STATIC --extra-libs=-liconv --disable-w32threads --extra-cflags=-DKVZ_STATIC_LIB --enable-nonfree --extra-cflags='-IC:/PROGRA~1/NVIDIA~2/CUDA/v11.0/include' --extra-ldflags='-LC:/PROGRA~1/NVIDIA~2/CUDA/v11.0/lib/x64' --extra-cflags=-DAL_LIBTYPE_STATIC --extra-cflags='-IC:/bin/media-autobuild_suite-master/local64/include/AL'
  libavutil      56. 58.100 / 56. 58.100
  libavformat    58. 51.101 / 58. 51.101
  libavdevice    58. 11.101 / 58. 11.101
  libavfilter     7. 87.100 /  7. 87.100
  libswscale      5.  8.100 /  5.  8.100
  libswresample   3.  8.100 /  3.  8.100
  libpostproc    55.  8.100 / 55.  8.100
  libavcodec     58.101.101 / 58.101.101
Input #0, avi, from '200808.avi':
    encoder         : Lavf58.49.100
    Stream #0:0: Video: rawvideo (I420 / 0x30323449), yuv420p, 1920x1080, 745750 kb/s, SAR 1:1 DAR 16:9, 29.97 fps, 29.97 tbr, 29.97 tbn, 29.97 tbc
  Metadata:
  Duration: 00:02:01.05, start: 0.000000, bitrate: 745549 kb/s
Stream mapping:
  Stream #0:0 -> #0:0 (rawvideo (native) -> h264 (h264_nvenc))
Press [q] to stop, [?] for help
Output #0, mp4, to 'output.mp4':
  Metadata:
      encoder         : Lavc58.101.101 h264_nvenc
    Stream #0:0: Video: h264 (h264_nvenc) (High) (avc1 / 0x31637661), yuv420p(tv, bt709), 1920x1080 [SAR 1:1 DAR 16:9], q=-1--1, 2000 kb/s, 29.97 fps, 30k tbn, 29.97 tbc
      cpb: bitrate max/min/avg: 0/0/2000000 buffer size: 4000000 vbv_delay: N/A
    Metadata:
    Side data:
    encoder         : Lavf58.51.101
[mp4 @ 0000021463da6c80] Starting second pass: moving the moov atom to the beginning of the file
frame= 3628 fps= 83 q=22.0 Lsize=  135417kB time=00:02:00.95 bitrate=9171.5kbits/s dup=1 drop=0 speed=2.77x    
video:135372kB audio:0kB subtitle:0kB other streams:0kB global headers:0kB muxing overhead: 0.033289%
DEBUG ExitCode: 0
DEBUG Invoke-Process
File: ffmpeg
Arg: -y -nostats -i output.mp4 -i 200808.avi -filter_complex libvmaf=vmaf_v0.6.1.pkl -an -f null -
ArgList:

ffmpeg version N-98966-g7a89f382a3-g0271098e6c+4 Copyright (c) 2000-2020 the FFmpeg developers
  built with gcc 10.2.0 (Rev1, Built by MSYS2 project)
  libavcodec     58.101.101 / 58.101.101
  libavformat    58. 51.101 / 58. 51.101
  libavdevice    58. 11.101 / 58. 11.101
  libavfilter     7. 87.100 /  7. 87.100
  libswscale      5.  8.100 /  5.  8.100
  libswresample   3.  8.100 /  3.  8.100
  libpostproc    55.  8.100 / 55.  8.100
  libavutil      56. 58.100 / 56. 58.100
  configuration:  --cc='ccache gcc' --cxx='ccache g++' --disable-autodetect --enable-amf --enable-bzlib --enable-cuda --enable-cuvid --enable-d3d11va --enable-dxva2 --enable-iconv --enable-lzma --enable-nvenc --enable-zlib --enable-sdl2 --enable-ffnvcodec --enable-nvdec --enable-cuda-llvm --enable-libmp3lame --enable-libopus --enable-libvorbis --enable-libvpx --enable-libx264 --enable-libx265 --enable-libdav1d --enable-libaom --disable-debug --enable-fontconfig --enable-libass --enable-libbluray --enable-libfreetype --enable-libmfx --enable-libmysofa --enable-libopencore-amrnb --enable-libopencore-amrwb --enable-libopenjpeg --enable-libsnappy --enable-libsoxr --enable-libspeex --enable-libtheora --enable-libtwolame --enable-libvidstab --enable-libvo-amrwbenc --enable-libwavpack --enable-libwebp --enable-libxml2 --enable-libzimg --enable-libshine --enable-gpl --enable-avisynth --enable-libxvid --enable-libopenmpt --enable-version3 --enable-librav1e --enable-libsrt --enable-libgsm --enable-libvmaf --enable-chromaprint --enable-decklink --enable-frei0r --enable-libbs2b --enable-libcaca --enable-libcdio --enable-libfdk-aac --enable-libflite --enable-libfribidi --enable-libgme --enable-libilbc --enable-libsvthevc --enable-libsvtav1 --enable-libsvtvp9 --enable-libkvazaar --enable-libmodplug --enable-librtmp --enable-librubberband --enable-libtesseract --enable-libxavs --enable-libzmq --enable-libzvbi --enable-openal --enable-libcodec2 --enable-ladspa --enable-libglslang --enable-vulkan --enable-opencl --enable-opengl --enable-libnpp --enable-libopenh264 --enable-openssl --extra-cflags=-fopenmp --extra-libs=-lgomp --extra-cflags=-DLIBTWOLAME_STATIC --extra-libs=-lstdc++ --extra-cflags=-DCACA_STATIC --extra-cflags=-DMODPLUG_STATIC --extra-cflags=-DCHROMAPRINT_NODLL --extra-libs=-lstdc++ --extra-cflags=-DZMQ_STATIC --extra-libs=-lpsapi --extra-cflags=-DLIBXML_STATIC --extra-libs=-liconv --disable-w32threads --extra-cflags=-DKVZ_STATIC_LIB --enable-nonfree --extra-cflags='-IC:/PROGRA~1/NVIDIA~2/CUDA/v11.0/include' --extra-ldflags='-LC:/PROGRA~1/NVIDIA~2/CUDA/v11.0/lib/x64' --extra-cflags=-DAL_LIBTYPE_STATIC --extra-cflags='-IC:/bin/media-autobuild_suite-master/local64/include/AL'
Input #0, mov,mp4,m4a,3gp,3g2,mj2, from 'output.mp4':
  Metadata:
    major_brand     : isom
    compatible_brands: isomiso2avc1mp41
    Stream #0:0(und): Video: h264 (High) (avc1 / 0x31637661), yuv420p(tv, bt709), 1920x1080 [SAR 1:1 DAR 16:9], 9160 kb/s, 29.97 fps, 29.97 tbr, 30k tbn, 59.94 tbc (default)
  Duration: 00:02:01.06, start: 0.000000, bitrate: 9163 kb/s
    Metadata:
    minor_version   : 512
    encoder         : Lavf58.51.101
      handler_name    : VideoHandler
Input #1, avi, from '200808.avi':
  Metadata:
    encoder         : Lavf58.49.100
  Duration: 00:02:01.05, start: 0.000000, bitrate: 745549 kb/s
    Stream #1:0: Video: rawvideo (I420 / 0x30323449), yuv420p, 1920x1080, 745750 kb/s, SAR 1:1 DAR 16:9, 29.97 fps, 29.97 tbr, 29.97 tbn, 29.97 tbc
Stream mapping:
  libvmaf -> Stream #0:0 (wrapped_avframe)
  Stream #1:0 (rawvideo) -> libvmaf:reference
  Stream #0:0 (h264) -> libvmaf:main
Press [q] to stop, [?] for help
Output #0, null, to 'pipe:':
  Metadata:
    major_brand     : isom
    minor_version   : 512
    compatible_brands: isomiso2avc1mp41
    encoder         : Lavf58.51.101
      encoder         : Lavc58.101.101 wrapped_avframe
    Metadata:
    Stream #0:0: Video: wrapped_avframe, yuv420p, 1920x1080 [SAR 1:1 DAR 16:9], q=2-31, 200 kb/s, 29.97 fps, 29.97 tbn, 29.97 tbc (default)
frame= 3628 fps= 27 q=-0.0 Lsize=N/A time=00:02:01.05 bitrate=N/A speed=0.895x    
video:1899kB audio:0kB subtitle:0kB other streams:0kB global headers:0kB muxing overhead: unknown
[libvmaf @ 0000018cc4bce000] VMAF score: 95.936172
DEBUG ExitCode: 0
132.24MB
**********************
PowerShell transcript end
End time: 20200906033153
**********************
